  0
SECTION
  2
BLOCKS
  0
ENDSEC
  0
SECTION
  2
ENTITIES
  0
LINE
  8
0
 10
-6.000000
 11
-5.976000
 20
0.000000
 21
0.538000
  0
LINE
  8
0
 10
-5.976000
 11
-5.904000
 20
0.538000
 21
1.071000
  0
LINE
  8
0
 10
-5.904000
 11
-5.784000
 20
1.071000
 21
1.596000
  0
LINE
  8
0
 10
-5.784000
 11
-5.617000
 20
1.596000
 21
2.108000
  0
LINE
  8
0
 10
-5.617000
 11
-5.406000
 20
2.108000
 21
2.603000
  0
LINE
  8
0
 10
-5.406000
 11
-5.151000
 20
2.603000
 21
3.077000
  0
LINE
  8
0
 10
-5.151000
 11
-4.854000
 20
3.077000
 21
3.527000
  0
LINE
  8
0
 10
-4.854000
 11
-4.565000
 20
3.527000
 21
3.889000
  0
LINE
  8
0
 10
-4.565000
 11
-3.500000
 20
3.889000
 21
3.889000
  0
LINE
  8
0
 10
-3.500000
 11
-3.500000
 20
3.889000
 21
-3.889000
  0
LINE
  8
0
 10
-3.500000
 11
-4.565000
 20
-3.889000
 21
-3.889000
  0
LINE
  8
0
 10
-4.565000
 11
-4.854000
 20
-3.889000
 21
-3.527000
  0
LINE
  8
0
 10
-4.854000
 11
-5.151000
 20
-3.527000
 21
-3.077000
  0
LINE
  8
0
 10
-5.151000
 11
-5.406000
 20
-3.077000
 21
-2.603000
  0
LINE
  8
0
 10
-5.406000
 11
-5.617000
 20
-2.603000
 21
-2.108000
  0
LINE
  8
0
 10
-5.617000
 11
-5.784000
 20
-2.108000
 21
-1.596000
  0
LINE
  8
0
 10
-5.784000
 11
-5.904000
 20
-1.596000
 21
-1.071000
  0
LINE
  8
0
 10
-5.904000
 11
-5.976000
 20
-1.071000
 21
-0.538000
  0
LINE
  8
0
 10
-5.976000
 11
-6.000000
 20
-0.538000
 21
0.000000
  0
LINE
  8
0
 10
-2.500000
 11
-2.480000
 20
0.000000
 21
0.313000
  0
LINE
  8
0
 10
-2.480000
 11
-2.421000
 20
0.313000
 21
0.622000
  0
LINE
  8
0
 10
-2.421000
 11
-2.324000
 20
0.622000
 21
0.920000
  0
LINE
  8
0
 10
-2.324000
 11
-2.191000
 20
0.920000
 21
1.204000
  0
LINE
  8
0
 10
-2.191000
 11
-2.023000
 20
1.204000
 21
1.469000
  0
LINE
  8
0
 10
-2.023000
 11
-1.822000
 20
1.469000
 21
1.711000
  0
LINE
  8
0
 10
-1.822000
 11
-1.594000
 20
1.711000
 21
1.926000
  0
LINE
  8
0
 10
-1.594000
 11
-1.340000
 20
1.926000
 21
2.111000
  0
LINE
  8
0
 10
-1.340000
 11
-1.064000
 20
2.111000
 21
2.262000
  0
LINE
  8
0
 10
-1.064000
 11
-0.773000
 20
2.262000
 21
2.378000
  0
LINE
  8
0
 10
-0.773000
 11
-0.468000
 20
2.378000
 21
2.456000
  0
LINE
  8
0
 10
-0.468000
 11
-0.157000
 20
2.456000
 21
2.495000
  0
LINE
  8
0
 10
-0.157000
 11
0.157000
 20
2.495000
 21
2.495000
  0
LINE
  8
0
 10
0.157000
 11
0.468000
 20
2.495000
 21
2.456000
  0
LINE
  8
0
 10
0.468000
 11
0.773000
 20
2.456000
 21
2.378000
  0
LINE
  8
0
 10
0.773000
 11
1.064000
 20
2.378000
 21
2.262000
  0
LINE
  8
0
 10
1.064000
 11
1.340000
 20
2.262000
 21
2.111000
  0
LINE
  8
0
 10
1.340000
 11
1.594000
 20
2.111000
 21
1.926000
  0
LINE
  8
0
 10
1.594000
 11
1.822000
 20
1.926000
 21
1.711000
  0
LINE
  8
0
 10
1.822000
 11
2.023000
 20
1.711000
 21
1.469000
  0
LINE
  8
0
 10
2.023000
 11
2.191000
 20
1.469000
 21
1.204000
  0
LINE
  8
0
 10
2.191000
 11
2.324000
 20
1.204000
 21
0.920000
  0
LINE
  8
0
 10
2.324000
 11
2.421000
 20
0.920000
 21
0.622000
  0
LINE
  8
0
 10
2.421000
 11
2.480000
 20
0.622000
 21
0.313000
  0
LINE
  8
0
 10
2.480000
 11
2.500000
 20
0.313000
 21
0.000000
  0
LINE
  8
0
 10
2.500000
 11
2.480000
 20
0.000000
 21
-0.313000
  0
LINE
  8
0
 10
2.480000
 11
2.421000
 20
-0.313000
 21
-0.622000
  0
LINE
  8
0
 10
2.421000
 11
2.324000
 20
-0.622000
 21
-0.920000
  0
LINE
  8
0
 10
2.324000
 11
2.191000
 20
-0.920000
 21
-1.204000
  0
LINE
  8
0
 10
2.191000
 11
2.023000
 20
-1.204000
 21
-1.469000
  0
LINE
  8
0
 10
2.023000
 11
1.822000
 20
-1.469000
 21
-1.711000
  0
LINE
  8
0
 10
1.822000
 11
1.594000
 20
-1.711000
 21
-1.926000
  0
LINE
  8
0
 10
1.594000
 11
1.340000
 20
-1.926000
 21
-2.111000
  0
LINE
  8
0
 10
1.340000
 11
1.064000
 20
-2.111000
 21
-2.262000
  0
LINE
  8
0
 10
1.064000
 11
0.773000
 20
-2.262000
 21
-2.378000
  0
LINE
  8
0
 10
0.773000
 11
0.468000
 20
-2.378000
 21
-2.456000
  0
LINE
  8
0
 10
0.468000
 11
0.157000
 20
-2.456000
 21
-2.495000
  0
LINE
  8
0
 10
0.157000
 11
-0.157000
 20
-2.495000
 21
-2.495000
  0
LINE
  8
0
 10
-0.157000
 11
-0.468000
 20
-2.495000
 21
-2.456000
  0
LINE
  8
0
 10
-0.468000
 11
-0.773000
 20
-2.456000
 21
-2.378000
  0
LINE
  8
0
 10
-0.773000
 11
-1.064000
 20
-2.378000
 21
-2.262000
  0
LINE
  8
0
 10
-1.064000
 11
-1.340000
 20
-2.262000
 21
-2.111000
  0
LINE
  8
0
 10
-1.340000
 11
-1.594000
 20
-2.111000
 21
-1.926000
  0
LINE
  8
0
 10
-1.594000
 11
-1.822000
 20
-1.926000
 21
-1.711000
  0
LINE
  8
0
 10
-1.822000
 11
-2.023000
 20
-1.711000
 21
-1.469000
  0
LINE
  8
0
 10
-2.023000
 11
-2.191000
 20
-1.469000
 21
-1.204000
  0
LINE
  8
0
 10
-2.191000
 11
-2.324000
 20
-1.204000
 21
-0.920000
  0
LINE
  8
0
 10
-2.324000
 11
-2.421000
 20
-0.920000
 21
-0.622000
  0
LINE
  8
0
 10
-2.421000
 11
-2.480000
 20
-0.622000
 21
-0.313000
  0
LINE
  8
0
 10
-2.480000
 11
-2.500000
 20
-0.313000
 21
0.000000
  0
LINE
  8
0
 10
3.500000
 11
3.500000
 20
-3.889000
 21
3.889000
  0
LINE
  8
0
 10
3.500000
 11
4.565000
 20
3.889000
 21
3.889000
  0
LINE
  8
0
 10
4.565000
 11
4.854000
 20
3.889000
 21
3.527000
  0
LINE
  8
0
 10
4.854000
 11
5.151000
 20
3.527000
 21
3.077000
  0
LINE
  8
0
 10
5.151000
 11
5.406000
 20
3.077000
 21
2.603000
  0
LINE
  8
0
 10
5.406000
 11
5.617000
 20
2.603000
 21
2.108000
  0
LINE
  8
0
 10
5.617000
 11
5.784000
 20
2.108000
 21
1.596000
  0
LINE
  8
0
 10
5.784000
 11
5.904000
 20
1.596000
 21
1.071000
  0
LINE
  8
0
 10
5.904000
 11
5.976000
 20
1.071000
 21
0.538000
  0
LINE
  8
0
 10
5.976000
 11
6.000000
 20
0.538000
 21
0.000000
  0
LINE
  8
0
 10
6.000000
 11
5.976000
 20
0.000000
 21
-0.538000
  0
LINE
  8
0
 10
5.976000
 11
5.904000
 20
-0.538000
 21
-1.071000
  0
LINE
  8
0
 10
5.904000
 11
5.784000
 20
-1.071000
 21
-1.596000
  0
LINE
  8
0
 10
5.784000
 11
5.617000
 20
-1.596000
 21
-2.108000
  0
LINE
  8
0
 10
5.617000
 11
5.406000
 20
-2.108000
 21
-2.603000
  0
LINE
  8
0
 10
5.406000
 11
5.151000
 20
-2.603000
 21
-3.077000
  0
LINE
  8
0
 10
5.151000
 11
4.854000
 20
-3.077000
 21
-3.527000
  0
LINE
  8
0
 10
4.854000
 11
4.565000
 20
-3.527000
 21
-3.889000
  0
LINE
  8
0
 10
4.565000
 11
3.500000
 20
-3.889000
 21
-3.889000
  0
ENDSEC
  0
SECTION
  2
OBJECTS
  0
DICTIONARY
  0
ENDSEC
  0
EOF
