  0
SECTION
  2
BLOCKS
  0
ENDSEC
  0
SECTION
  2
ENTITIES
  0
LINE
  8
0
 10
0.000000
 11
0.000000
 20
0.000000
 21
13.861000
  0
LINE
  8
0
 10
0.000000
 11
0.013000
 20
13.861000
 21
13.840000
  0
LINE
  8
0
 10
0.013000
 11
0.127000
 20
13.840000
 21
13.577000
  0
LINE
  8
0
 10
0.127000
 11
0.216000
 20
13.577000
 21
13.428000
  0
LINE
  8
0
 10
0.216000
 11
0.297000
 20
13.428000
 21
13.222000
  0
LINE
  8
0
 10
0.297000
 11
0.401000
 20
13.222000
 21
13.033000
  0
LINE
  8
0
 10
0.401000
 11
0.456000
 20
13.033000
 21
12.880000
  0
LINE
  8
0
 10
0.456000
 11
0.570000
 20
12.880000
 21
12.656000
  0
LINE
  8
0
 10
0.570000
 11
0.604000
 20
12.656000
 21
12.552000
  0
LINE
  8
0
 10
0.604000
 11
0.727000
 20
12.552000
 21
12.292000
  0
LINE
  8
0
 10
0.727000
 11
0.742000
 20
12.292000
 21
12.239000
  0
LINE
  8
0
 10
0.742000
 11
0.868000
 20
12.239000
 21
11.946000
  0
LINE
  8
0
 10
0.868000
 11
0.870000
 20
11.946000
 21
11.940000
  0
LINE
  8
0
 10
0.870000
 11
1.055000
 20
11.940000
 21
11.473000
  0
LINE
  8
0
 10
1.055000
 11
1.058000
 20
11.473000
 21
11.467000
  0
LINE
  8
0
 10
1.058000
 11
1.160000
 20
11.467000
 21
11.184000
  0
LINE
  8
0
 10
1.160000
 11
1.177000
 20
11.184000
 21
11.150000
  0
LINE
  8
0
 10
1.177000
 11
1.255000
 20
11.150000
 21
10.911000
  0
LINE
  8
0
 10
1.255000
 11
1.289000
 20
10.911000
 21
10.838000
  0
LINE
  8
0
 10
1.289000
 11
1.343000
 20
10.838000
 21
10.653000
  0
LINE
  8
0
 10
1.343000
 11
1.385000
 20
10.653000
 21
10.555000
  0
LINE
  8
0
 10
1.385000
 11
1.422000
 20
10.555000
 21
10.412000
  0
LINE
  8
0
 10
1.422000
 11
1.472000
 20
10.412000
 21
10.286000
  0
LINE
  8
0
 10
1.472000
 11
1.494000
 20
10.286000
 21
10.187000
  0
LINE
  8
0
 10
1.494000
 11
1.550000
 20
10.187000
 21
10.032000
  0
LINE
  8
0
 10
1.550000
 11
1.560000
 20
10.032000
 21
9.978000
  0
LINE
  8
0
 10
1.560000
 11
1.616000
 20
9.978000
 21
9.806000
  0
LINE
  8
0
 10
1.616000
 11
1.619000
 20
9.806000
 21
9.787000
  0
LINE
  8
0
 10
1.619000
 11
1.691000
 20
9.787000
 21
9.539000
  0
LINE
  8
0
 10
1.691000
 11
1.772000
 20
9.539000
 21
9.223000
  0
LINE
  8
0
 10
1.772000
 11
1.830000
 20
9.223000
 21
8.966000
  0
LINE
  8
0
 10
1.830000
 11
1.832000
 20
8.966000
 21
8.962000
  0
LINE
  8
0
 10
1.832000
 11
1.858000
 20
8.962000
 21
8.823000
  0
LINE
  8
0
 10
1.858000
 11
1.865000
 20
8.823000
 21
8.802000
  0
LINE
  8
0
 10
1.865000
 11
1.881000
 20
8.802000
 21
8.699000
  0
LINE
  8
0
 10
1.881000
 11
1.894000
 20
8.699000
 21
8.654000
  0
LINE
  8
0
 10
1.894000
 11
1.902000
 20
8.654000
 21
8.592000
  0
LINE
  8
0
 10
1.902000
 11
1.916000
 20
8.592000
 21
8.538000
  0
LINE
  8
0
 10
1.916000
 11
1.919000
 20
8.538000
 21
8.504000
  0
LINE
  8
0
 10
1.919000
 11
1.932000
 20
8.504000
 21
8.444000
  0
LINE
  8
0
 10
1.932000
 11
1.933000
 20
8.444000
 21
8.434000
  0
LINE
  8
0
 10
1.933000
 11
1.960000
 20
8.434000
 21
8.291000
  0
LINE
  8
0
 10
1.960000
 11
1.984000
 20
8.291000
 21
8.145000
  0
LINE
  8
0
 10
1.984000
 11
1.994000
 20
8.145000
 21
8.065000
  0
LINE
  8
0
 10
1.994000
 11
2.000000
 20
8.065000
 21
8.005000
  0
LINE
  8
0
 10
2.000000
 11
2.000000
 20
8.005000
 21
7.996000
  0
LINE
  8
0
 10
2.000000
 11
1.999000
 20
7.996000
 21
7.959000
  0
LINE
  8
0
 10
1.999000
 11
2.002000
 20
7.959000
 21
7.928000
  0
LINE
  8
0
 10
2.002000
 11
2.002000
 20
7.928000
 21
7.884000
  0
LINE
  8
0
 10
2.002000
 11
2.008000
 20
7.884000
 21
7.820000
  0
LINE
  8
0
 10
2.008000
 11
2.008000
 20
7.820000
 21
7.749000
  0
LINE
  8
0
 10
2.008000
 11
2.016000
 20
7.749000
 21
7.682000
  0
LINE
  8
0
 10
2.016000
 11
2.018000
 20
7.682000
 21
7.633000
  0
LINE
  8
0
 10
2.018000
 11
2.030000
 20
7.633000
 21
7.559000
  0
LINE
  8
0
 10
2.030000
 11
2.031000
 20
7.559000
 21
7.537000
  0
LINE
  8
0
 10
2.031000
 11
2.038000
 20
7.537000
 21
7.500000
  0
LINE
  8
0
 10
2.038000
 11
2.049000
 20
7.500000
 21
7.383000
  0
LINE
  8
0
 10
2.049000
 11
2.061000
 20
7.383000
 21
7.330000
  0
LINE
  8
0
 10
2.061000
 11
2.071000
 20
7.330000
 21
7.250000
  0
LINE
  8
0
 10
2.071000
 11
2.089000
 20
7.250000
 21
7.179000
  0
LINE
  8
0
 10
2.089000
 11
2.096000
 20
7.179000
 21
7.136000
  0
LINE
  8
0
 10
2.096000
 11
2.131000
 20
7.136000
 21
7.016000
  0
LINE
  8
0
 10
2.131000
 11
2.134000
 20
7.016000
 21
7.004000
  0
LINE
  8
0
 10
2.134000
 11
2.159000
 20
7.004000
 21
6.894000
  0
LINE
  8
0
 10
2.159000
 11
2.172000
 20
6.894000
 21
6.859000
  0
LINE
  8
0
 10
2.172000
 11
2.196000
 20
6.859000
 21
6.764000
  0
LINE
  8
0
 10
2.196000
 11
2.231000
 20
6.764000
 21
6.676000
  0
LINE
  8
0
 10
2.231000
 11
2.237000
 20
6.676000
 21
6.655000
  0
LINE
  8
0
 10
2.237000
 11
2.263000
 20
6.655000
 21
6.594000
  0
LINE
  8
0
 10
2.263000
 11
2.301000
 20
6.594000
 21
6.499000
  0
LINE
  8
0
 10
2.301000
 11
2.329000
 20
6.499000
 21
6.421000
  0
LINE
  8
0
 10
2.329000
 11
2.342000
 20
6.421000
 21
6.396000
  0
LINE
  8
0
 10
2.342000
 11
2.381000
 20
6.396000
 21
6.297000
  0
LINE
  8
0
 10
2.381000
 11
2.430000
 20
6.297000
 21
6.208000
  0
LINE
  8
0
 10
2.430000
 11
2.436000
 20
6.208000
 21
6.194000
  0
LINE
  8
0
 10
2.436000
 11
2.460000
 20
6.194000
 21
6.154000
  0
LINE
  8
0
 10
2.460000
 11
2.536000
 20
6.154000
 21
6.015000
  0
LINE
  8
0
 10
2.536000
 11
2.557000
 20
6.015000
 21
5.974000
  0
LINE
  8
0
 10
2.557000
 11
2.566000
 20
5.974000
 21
5.961000
  0
LINE
  8
0
 10
2.566000
 11
2.623000
 20
5.961000
 21
5.857000
  0
LINE
  8
0
 10
2.623000
 11
2.689000
 20
5.857000
 21
5.765000
  0
LINE
  8
0
 10
2.689000
 11
2.692000
 20
5.765000
 21
5.761000
  0
LINE
  8
0
 10
2.692000
 11
2.701000
 20
5.761000
 21
5.750000
  0
LINE
  8
0
 10
2.701000
 11
2.833000
 20
5.750000
 21
5.567000
  0
LINE
  8
0
 10
2.833000
 11
2.840000
 20
5.567000
 21
5.557000
  0
LINE
  8
0
 10
2.840000
 11
2.842000
 20
5.557000
 21
5.554000
  0
LINE
  8
0
 10
2.842000
 11
2.918000
 20
5.554000
 21
5.450000
  0
LINE
  8
0
 10
2.918000
 11
3.262000
 20
5.450000
 21
5.084000
  0
LINE
  8
0
 10
3.262000
 11
3.649000
 20
5.084000
 21
4.764000
  0
LINE
  8
0
 10
3.649000
 11
4.073000
 20
4.764000
 21
4.495000
  0
LINE
  8
0
 10
4.073000
 11
4.528000
 20
4.495000
 21
4.281000
  0
LINE
  8
0
 10
4.528000
 11
5.005000
 20
4.281000
 21
4.126000
  0
LINE
  8
0
 10
5.005000
 11
5.499000
 20
4.126000
 21
4.032000
  0
LINE
  8
0
 10
5.499000
 11
6.000000
 20
4.032000
 21
4.000000
  0
LINE
  8
0
 10
6.000000
 11
6.501000
 20
4.000000
 21
4.032000
  0
LINE
  8
0
 10
6.501000
 11
6.995000
 20
4.032000
 21
4.126000
  0
LINE
  8
0
 10
6.995000
 11
7.472000
 20
4.126000
 21
4.281000
  0
LINE
  8
0
 10
7.472000
 11
7.927000
 20
4.281000
 21
4.495000
  0
LINE
  8
0
 10
7.927000
 11
8.351000
 20
4.495000
 21
4.764000
  0
LINE
  8
0
 10
8.351000
 11
8.738000
 20
4.764000
 21
5.084000
  0
LINE
  8
0
 10
8.738000
 11
9.082000
 20
5.084000
 21
5.450000
  0
LINE
  8
0
 10
9.082000
 11
9.158000
 20
5.450000
 21
5.554000
  0
LINE
  8
0
 10
9.158000
 11
9.160000
 20
5.554000
 21
5.557000
  0
LINE
  8
0
 10
9.160000
 11
9.167000
 20
5.557000
 21
5.567000
  0
LINE
  8
0
 10
9.167000
 11
9.299000
 20
5.567000
 21
5.750000
  0
LINE
  8
0
 10
9.299000
 11
9.308000
 20
5.750000
 21
5.761000
  0
LINE
  8
0
 10
9.308000
 11
9.311000
 20
5.761000
 21
5.765000
  0
LINE
  8
0
 10
9.311000
 11
9.377000
 20
5.765000
 21
5.857000
  0
LINE
  8
0
 10
9.377000
 11
9.434000
 20
5.857000
 21
5.961000
  0
LINE
  8
0
 10
9.434000
 11
9.443000
 20
5.961000
 21
5.974000
  0
LINE
  8
0
 10
9.443000
 11
9.464000
 20
5.974000
 21
6.015000
  0
LINE
  8
0
 10
9.464000
 11
9.540000
 20
6.015000
 21
6.154000
  0
LINE
  8
0
 10
9.540000
 11
9.564000
 20
6.154000
 21
6.194000
  0
LINE
  8
0
 10
9.564000
 11
9.570000
 20
6.194000
 21
6.208000
  0
LINE
  8
0
 10
9.570000
 11
9.619000
 20
6.208000
 21
6.297000
  0
LINE
  8
0
 10
9.619000
 11
9.658000
 20
6.297000
 21
6.396000
  0
LINE
  8
0
 10
9.658000
 11
9.671000
 20
6.396000
 21
6.421000
  0
LINE
  8
0
 10
9.671000
 11
9.699000
 20
6.421000
 21
6.499000
  0
LINE
  8
0
 10
9.699000
 11
9.737000
 20
6.499000
 21
6.594000
  0
LINE
  8
0
 10
9.737000
 11
9.763000
 20
6.594000
 21
6.655000
  0
LINE
  8
0
 10
9.763000
 11
9.769000
 20
6.655000
 21
6.676000
  0
LINE
  8
0
 10
9.769000
 11
9.804000
 20
6.676000
 21
6.764000
  0
LINE
  8
0
 10
9.804000
 11
9.828000
 20
6.764000
 21
6.859000
  0
LINE
  8
0
 10
9.828000
 11
9.841000
 20
6.859000
 21
6.894000
  0
LINE
  8
0
 10
9.841000
 11
9.866000
 20
6.894000
 21
7.004000
  0
LINE
  8
0
 10
9.866000
 11
9.869000
 20
7.004000
 21
7.016000
  0
LINE
  8
0
 10
9.869000
 11
9.904000
 20
7.016000
 21
7.136000
  0
LINE
  8
0
 10
9.904000
 11
9.911000
 20
7.136000
 21
7.179000
  0
LINE
  8
0
 10
9.911000
 11
9.929000
 20
7.179000
 21
7.250000
  0
LINE
  8
0
 10
9.929000
 11
9.939000
 20
7.250000
 21
7.330000
  0
LINE
  8
0
 10
9.939000
 11
9.951000
 20
7.330000
 21
7.383000
  0
LINE
  8
0
 10
9.951000
 11
9.962000
 20
7.383000
 21
7.500000
  0
LINE
  8
0
 10
9.962000
 11
9.969000
 20
7.500000
 21
7.537000
  0
LINE
  8
0
 10
9.969000
 11
9.970000
 20
7.537000
 21
7.559000
  0
LINE
  8
0
 10
9.970000
 11
9.982000
 20
7.559000
 21
7.633000
  0
LINE
  8
0
 10
9.982000
 11
9.984000
 20
7.633000
 21
7.682000
  0
LINE
  8
0
 10
9.984000
 11
9.992000
 20
7.682000
 21
7.749000
  0
LINE
  8
0
 10
9.992000
 11
9.992000
 20
7.749000
 21
7.820000
  0
LINE
  8
0
 10
9.992000
 11
9.998000
 20
7.820000
 21
7.884000
  0
LINE
  8
0
 10
9.998000
 11
9.998000
 20
7.884000
 21
7.928000
  0
LINE
  8
0
 10
9.998000
 11
10.001000
 20
7.928000
 21
7.959000
  0
LINE
  8
0
 10
10.001000
 11
10.000000
 20
7.959000
 21
7.996000
  0
LINE
  8
0
 10
10.000000
 11
10.000000
 20
7.996000
 21
8.005000
  0
LINE
  8
0
 10
10.000000
 11
10.006000
 20
8.005000
 21
8.065000
  0
LINE
  8
0
 10
10.006000
 11
10.016000
 20
8.065000
 21
8.145000
  0
LINE
  8
0
 10
10.016000
 11
10.040000
 20
8.145000
 21
8.291000
  0
LINE
  8
0
 10
10.040000
 11
10.067000
 20
8.291000
 21
8.434000
  0
LINE
  8
0
 10
10.067000
 11
10.068000
 20
8.434000
 21
8.444000
  0
LINE
  8
0
 10
10.068000
 11
10.081000
 20
8.444000
 21
8.504000
  0
LINE
  8
0
 10
10.081000
 11
10.084000
 20
8.504000
 21
8.538000
  0
LINE
  8
0
 10
10.084000
 11
10.098000
 20
8.538000
 21
8.592000
  0
LINE
  8
0
 10
10.098000
 11
10.106000
 20
8.592000
 21
8.654000
  0
LINE
  8
0
 10
10.106000
 11
10.119000
 20
8.654000
 21
8.699000
  0
LINE
  8
0
 10
10.119000
 11
10.135000
 20
8.699000
 21
8.802000
  0
LINE
  8
0
 10
10.135000
 11
10.142000
 20
8.802000
 21
8.823000
  0
LINE
  8
0
 10
10.142000
 11
10.168000
 20
8.823000
 21
8.962000
  0
LINE
  8
0
 10
10.168000
 11
10.170000
 20
8.962000
 21
8.966000
  0
LINE
  8
0
 10
10.170000
 11
10.228000
 20
8.966000
 21
9.223000
  0
LINE
  8
0
 10
10.228000
 11
10.309000
 20
9.223000
 21
9.539000
  0
LINE
  8
0
 10
10.309000
 11
10.381000
 20
9.539000
 21
9.787000
  0
LINE
  8
0
 10
10.381000
 11
10.384000
 20
9.787000
 21
9.806000
  0
LINE
  8
0
 10
10.384000
 11
10.440000
 20
9.806000
 21
9.978000
  0
LINE
  8
0
 10
10.440000
 11
10.450000
 20
9.978000
 21
10.032000
  0
LINE
  8
0
 10
10.450000
 11
10.506000
 20
10.032000
 21
10.187000
  0
LINE
  8
0
 10
10.506000
 11
10.528000
 20
10.187000
 21
10.286000
  0
LINE
  8
0
 10
10.528000
 11
10.578000
 20
10.286000
 21
10.412000
  0
LINE
  8
0
 10
10.578000
 11
10.615000
 20
10.412000
 21
10.555000
  0
LINE
  8
0
 10
10.615000
 11
10.657000
 20
10.555000
 21
10.653000
  0
LINE
  8
0
 10
10.657000
 11
10.711000
 20
10.653000
 21
10.838000
  0
LINE
  8
0
 10
10.711000
 11
10.745000
 20
10.838000
 21
10.911000
  0
LINE
  8
0
 10
10.745000
 11
10.823000
 20
10.911000
 21
11.150000
  0
LINE
  8
0
 10
10.823000
 11
10.840000
 20
11.150000
 21
11.184000
  0
LINE
  8
0
 10
10.840000
 11
10.942000
 20
11.184000
 21
11.467000
  0
LINE
  8
0
 10
10.942000
 11
10.945000
 20
11.467000
 21
11.473000
  0
LINE
  8
0
 10
10.945000
 11
11.130000
 20
11.473000
 21
11.940000
  0
LINE
  8
0
 10
11.130000
 11
11.132000
 20
11.940000
 21
11.946000
  0
LINE
  8
0
 10
11.132000
 11
11.258000
 20
11.946000
 21
12.239000
  0
LINE
  8
0
 10
11.258000
 11
11.273000
 20
12.239000
 21
12.292000
  0
LINE
  8
0
 10
11.273000
 11
11.396000
 20
12.292000
 21
12.552000
  0
LINE
  8
0
 10
11.396000
 11
11.430000
 20
12.552000
 21
12.656000
  0
LINE
  8
0
 10
11.430000
 11
11.544000
 20
12.656000
 21
12.880000
  0
LINE
  8
0
 10
11.544000
 11
11.599000
 20
12.880000
 21
13.033000
  0
LINE
  8
0
 10
11.599000
 11
11.703000
 20
13.033000
 21
13.222000
  0
LINE
  8
0
 10
11.703000
 11
11.784000
 20
13.222000
 21
13.428000
  0
LINE
  8
0
 10
11.784000
 11
11.873000
 20
13.428000
 21
13.577000
  0
LINE
  8
0
 10
11.873000
 11
11.987000
 20
13.577000
 21
13.840000
  0
LINE
  8
0
 10
11.987000
 11
12.000000
 20
13.840000
 21
13.861000
  0
LINE
  8
0
 10
12.000000
 11
12.000000
 20
13.861000
 21
0.000000
  0
LINE
  8
0
 10
12.000000
 11
0.000000
 20
0.000000
 21
0.000000
  0
ENDSEC
  0
SECTION
  2
OBJECTS
  0
DICTIONARY
  0
ENDSEC
  0
EOF
