  0
SECTION
  2
BLOCKS
  0
ENDSEC
  0
SECTION
  2
ENTITIES
  0
LINE
  8
0
 10
-27.099000
 11
-26.885000
 20
0.000000
 21
3.396000
  0
LINE
  8
0
 10
-26.885000
 11
-26.247000
 20
3.396000
 21
6.739000
  0
LINE
  8
0
 10
-26.247000
 11
-25.196000
 20
6.739000
 21
9.976000
  0
LINE
  8
0
 10
-25.196000
 11
-23.747000
 20
9.976000
 21
13.055000
  0
LINE
  8
0
 10
-23.747000
 11
-21.923000
 20
13.055000
 21
15.928000
  0
LINE
  8
0
 10
-21.923000
 11
-19.754000
 20
15.928000
 21
18.550000
  0
LINE
  8
0
 10
-19.754000
 11
-17.273000
 20
18.550000
 21
20.880000
  0
LINE
  8
0
 10
-17.273000
 11
-14.520000
 20
20.880000
 21
22.880000
  0
LINE
  8
0
 10
-14.520000
 11
-11.538000
 20
22.880000
 21
24.520000
  0
LINE
  8
0
 10
-11.538000
 11
-8.374000
 20
24.520000
 21
25.772000
  0
LINE
  8
0
 10
-8.374000
 11
-5.078000
 20
25.772000
 21
26.619000
  0
LINE
  8
0
 10
-5.078000
 11
-1.702000
 20
26.619000
 21
27.045000
  0
LINE
  8
0
 10
-1.702000
 11
1.702000
 20
27.045000
 21
27.045000
  0
LINE
  8
0
 10
1.702000
 11
5.078000
 20
27.045000
 21
26.619000
  0
LINE
  8
0
 10
5.078000
 11
8.374000
 20
26.619000
 21
25.772000
  0
LINE
  8
0
 10
8.374000
 11
11.538000
 20
25.772000
 21
24.520000
  0
LINE
  8
0
 10
11.538000
 11
14.520000
 20
24.520000
 21
22.880000
  0
LINE
  8
0
 10
14.520000
 11
17.273000
 20
22.880000
 21
20.880000
  0
LINE
  8
0
 10
17.273000
 11
19.754000
 20
20.880000
 21
18.550000
  0
LINE
  8
0
 10
19.754000
 11
21.923000
 20
18.550000
 21
15.928000
  0
LINE
  8
0
 10
21.923000
 11
23.747000
 20
15.928000
 21
13.055000
  0
LINE
  8
0
 10
23.747000
 11
25.196000
 20
13.055000
 21
9.976000
  0
LINE
  8
0
 10
25.196000
 11
26.247000
 20
9.976000
 21
6.739000
  0
LINE
  8
0
 10
26.247000
 11
26.885000
 20
6.739000
 21
3.396000
  0
LINE
  8
0
 10
26.885000
 11
27.099000
 20
3.396000
 21
0.000000
  0
LINE
  8
0
 10
27.099000
 11
26.885000
 20
0.000000
 21
-3.396000
  0
LINE
  8
0
 10
26.885000
 11
26.247000
 20
-3.396000
 21
-6.739000
  0
LINE
  8
0
 10
26.247000
 11
25.196000
 20
-6.739000
 21
-9.976000
  0
LINE
  8
0
 10
25.196000
 11
23.747000
 20
-9.976000
 21
-13.055000
  0
LINE
  8
0
 10
23.747000
 11
21.923000
 20
-13.055000
 21
-15.928000
  0
LINE
  8
0
 10
21.923000
 11
19.754000
 20
-15.928000
 21
-18.550000
  0
LINE
  8
0
 10
19.754000
 11
17.273000
 20
-18.550000
 21
-20.880000
  0
LINE
  8
0
 10
17.273000
 11
14.520000
 20
-20.880000
 21
-22.880000
  0
LINE
  8
0
 10
14.520000
 11
11.538000
 20
-22.880000
 21
-24.520000
  0
LINE
  8
0
 10
11.538000
 11
8.374000
 20
-24.520000
 21
-25.772000
  0
LINE
  8
0
 10
8.374000
 11
5.078000
 20
-25.772000
 21
-26.619000
  0
LINE
  8
0
 10
5.078000
 11
1.702000
 20
-26.619000
 21
-27.045000
  0
LINE
  8
0
 10
1.702000
 11
-1.702000
 20
-27.045000
 21
-27.045000
  0
LINE
  8
0
 10
-1.702000
 11
-5.078000
 20
-27.045000
 21
-26.619000
  0
LINE
  8
0
 10
-5.078000
 11
-8.374000
 20
-26.619000
 21
-25.772000
  0
LINE
  8
0
 10
-8.374000
 11
-11.538000
 20
-25.772000
 21
-24.520000
  0
LINE
  8
0
 10
-11.538000
 11
-14.520000
 20
-24.520000
 21
-22.880000
  0
LINE
  8
0
 10
-14.520000
 11
-17.273000
 20
-22.880000
 21
-20.880000
  0
LINE
  8
0
 10
-17.273000
 11
-19.754000
 20
-20.880000
 21
-18.550000
  0
LINE
  8
0
 10
-19.754000
 11
-21.923000
 20
-18.550000
 21
-15.928000
  0
LINE
  8
0
 10
-21.923000
 11
-23.747000
 20
-15.928000
 21
-13.055000
  0
LINE
  8
0
 10
-23.747000
 11
-25.196000
 20
-13.055000
 21
-9.976000
  0
LINE
  8
0
 10
-25.196000
 11
-26.247000
 20
-9.976000
 21
-6.739000
  0
LINE
  8
0
 10
-26.247000
 11
-26.885000
 20
-6.739000
 21
-3.396000
  0
LINE
  8
0
 10
-26.885000
 11
-27.099000
 20
-3.396000
 21
0.000000
  0
LINE
  8
0
 10
-23.099000
 11
-23.067000
 20
0.000000
 21
0.501000
  0
LINE
  8
0
 10
-23.067000
 11
-22.973000
 20
0.501000
 21
0.995000
  0
LINE
  8
0
 10
-22.973000
 11
-22.818000
 20
0.995000
 21
1.472000
  0
LINE
  8
0
 10
-22.818000
 11
-22.604000
 20
1.472000
 21
1.927000
  0
LINE
  8
0
 10
-22.604000
 11
-22.335000
 20
1.927000
 21
2.351000
  0
LINE
  8
0
 10
-22.335000
 11
-22.015000
 20
2.351000
 21
2.738000
  0
LINE
  8
0
 10
-22.015000
 11
-21.649000
 20
2.738000
 21
3.082000
  0
LINE
  8
0
 10
-21.649000
 11
-21.242000
 20
3.082000
 21
3.377000
  0
LINE
  8
0
 10
-21.242000
 11
-20.802000
 20
3.377000
 21
3.619000
  0
LINE
  8
0
 10
-20.802000
 11
-20.335000
 20
3.619000
 21
3.804000
  0
LINE
  8
0
 10
-20.335000
 11
-19.849000
 20
3.804000
 21
3.929000
  0
LINE
  8
0
 10
-19.849000
 11
-19.350000
 20
3.929000
 21
3.992000
  0
LINE
  8
0
 10
-19.350000
 11
-18.848000
 20
3.992000
 21
3.992000
  0
LINE
  8
0
 10
-18.848000
 11
-18.349000
 20
3.992000
 21
3.929000
  0
LINE
  8
0
 10
-18.349000
 11
-17.863000
 20
3.929000
 21
3.804000
  0
LINE
  8
0
 10
-17.863000
 11
-17.396000
 20
3.804000
 21
3.619000
  0
LINE
  8
0
 10
-17.396000
 11
-16.956000
 20
3.619000
 21
3.377000
  0
LINE
  8
0
 10
-16.956000
 11
-16.549000
 20
3.377000
 21
3.082000
  0
LINE
  8
0
 10
-16.549000
 11
-16.183000
 20
3.082000
 21
2.738000
  0
LINE
  8
0
 10
-16.183000
 11
-15.863000
 20
2.738000
 21
2.351000
  0
LINE
  8
0
 10
-15.863000
 11
-15.594000
 20
2.351000
 21
1.927000
  0
LINE
  8
0
 10
-15.594000
 11
-15.380000
 20
1.927000
 21
1.472000
  0
LINE
  8
0
 10
-15.380000
 11
-15.225000
 20
1.472000
 21
0.995000
  0
LINE
  8
0
 10
-15.225000
 11
-15.131000
 20
0.995000
 21
0.501000
  0
LINE
  8
0
 10
-15.131000
 11
-15.099000
 20
0.501000
 21
0.000000
  0
LINE
  8
0
 10
-15.099000
 11
-15.131000
 20
0.000000
 21
-0.501000
  0
LINE
  8
0
 10
-15.131000
 11
-15.225000
 20
-0.501000
 21
-0.995000
  0
LINE
  8
0
 10
-15.225000
 11
-15.380000
 20
-0.995000
 21
-1.472000
  0
LINE
  8
0
 10
-15.380000
 11
-15.594000
 20
-1.472000
 21
-1.927000
  0
LINE
  8
0
 10
-15.594000
 11
-15.863000
 20
-1.927000
 21
-2.351000
  0
LINE
  8
0
 10
-15.863000
 11
-16.183000
 20
-2.351000
 21
-2.738000
  0
LINE
  8
0
 10
-16.183000
 11
-16.549000
 20
-2.738000
 21
-3.082000
  0
LINE
  8
0
 10
-16.549000
 11
-16.956000
 20
-3.082000
 21
-3.377000
  0
LINE
  8
0
 10
-16.956000
 11
-17.396000
 20
-3.377000
 21
-3.619000
  0
LINE
  8
0
 10
-17.396000
 11
-17.863000
 20
-3.619000
 21
-3.804000
  0
LINE
  8
0
 10
-17.863000
 11
-18.349000
 20
-3.804000
 21
-3.929000
  0
LINE
  8
0
 10
-18.349000
 11
-18.848000
 20
-3.929000
 21
-3.992000
  0
LINE
  8
0
 10
-18.848000
 11
-19.350000
 20
-3.992000
 21
-3.992000
  0
LINE
  8
0
 10
-19.350000
 11
-19.849000
 20
-3.992000
 21
-3.929000
  0
LINE
  8
0
 10
-19.849000
 11
-20.335000
 20
-3.929000
 21
-3.804000
  0
LINE
  8
0
 10
-20.335000
 11
-20.802000
 20
-3.804000
 21
-3.619000
  0
LINE
  8
0
 10
-20.802000
 11
-21.242000
 20
-3.619000
 21
-3.377000
  0
LINE
  8
0
 10
-21.242000
 11
-21.649000
 20
-3.377000
 21
-3.082000
  0
LINE
  8
0
 10
-21.649000
 11
-22.015000
 20
-3.082000
 21
-2.738000
  0
LINE
  8
0
 10
-22.015000
 11
-22.335000
 20
-2.738000
 21
-2.351000
  0
LINE
  8
0
 10
-22.335000
 11
-22.604000
 20
-2.351000
 21
-1.927000
  0
LINE
  8
0
 10
-22.604000
 11
-22.818000
 20
-1.927000
 21
-1.472000
  0
LINE
  8
0
 10
-22.818000
 11
-22.973000
 20
-1.472000
 21
-0.995000
  0
LINE
  8
0
 10
-22.973000
 11
-23.067000
 20
-0.995000
 21
-0.501000
  0
LINE
  8
0
 10
-23.067000
 11
-23.099000
 20
-0.501000
 21
0.000000
  0
LINE
  8
0
 10
-19.451000
 11
-19.420000
 20
-11.226000
 21
-10.725000
  0
LINE
  8
0
 10
-19.420000
 11
-19.326000
 20
-10.725000
 21
-10.232000
  0
LINE
  8
0
 10
-19.326000
 11
-19.170000
 20
-10.232000
 21
-9.754000
  0
LINE
  8
0
 10
-19.170000
 11
-18.956000
 20
-9.754000
 21
-9.299000
  0
LINE
  8
0
 10
-18.956000
 11
-18.687000
 20
-9.299000
 21
-8.875000
  0
LINE
  8
0
 10
-18.687000
 11
-18.368000
 20
-8.875000
 21
-8.488000
  0
LINE
  8
0
 10
-18.368000
 11
-18.001000
 20
-8.488000
 21
-8.144000
  0
LINE
  8
0
 10
-18.001000
 11
-17.595000
 20
-8.144000
 21
-7.849000
  0
LINE
  8
0
 10
-17.595000
 11
-17.154000
 20
-7.849000
 21
-7.607000
  0
LINE
  8
0
 10
-17.154000
 11
-16.687000
 20
-7.607000
 21
-7.422000
  0
LINE
  8
0
 10
-16.687000
 11
-16.201000
 20
-7.422000
 21
-7.297000
  0
LINE
  8
0
 10
-16.201000
 11
-15.703000
 20
-7.297000
 21
-7.234000
  0
LINE
  8
0
 10
-15.703000
 11
-15.200000
 20
-7.234000
 21
-7.234000
  0
LINE
  8
0
 10
-15.200000
 11
-14.702000
 20
-7.234000
 21
-7.297000
  0
LINE
  8
0
 10
-14.702000
 11
-14.215000
 20
-7.297000
 21
-7.422000
  0
LINE
  8
0
 10
-14.215000
 11
-13.748000
 20
-7.422000
 21
-7.607000
  0
LINE
  8
0
 10
-13.748000
 11
-13.308000
 20
-7.607000
 21
-7.849000
  0
LINE
  8
0
 10
-13.308000
 11
-12.902000
 20
-7.849000
 21
-8.144000
  0
LINE
  8
0
 10
-12.902000
 11
-12.536000
 20
-8.144000
 21
-8.488000
  0
LINE
  8
0
 10
-12.536000
 11
-12.215000
 20
-8.488000
 21
-8.875000
  0
LINE
  8
0
 10
-12.215000
 11
-11.947000
 20
-8.875000
 21
-9.299000
  0
LINE
  8
0
 10
-11.947000
 11
-11.732000
 20
-9.299000
 21
-9.754000
  0
LINE
  8
0
 10
-11.732000
 11
-11.577000
 20
-9.754000
 21
-10.231000
  0
LINE
  8
0
 10
-11.577000
 11
-11.483000
 20
-10.231000
 21
-10.725000
  0
LINE
  8
0
 10
-11.483000
 11
-11.452000
 20
-10.725000
 21
-11.226000
  0
LINE
  8
0
 10
-11.452000
 11
-11.483000
 20
-11.226000
 21
-11.727000
  0
LINE
  8
0
 10
-11.483000
 11
-11.577000
 20
-11.727000
 21
-12.221000
  0
LINE
  8
0
 10
-11.577000
 11
-11.733000
 20
-12.221000
 21
-12.699000
  0
LINE
  8
0
 10
-11.733000
 11
-11.946000
 20
-12.699000
 21
-13.153000
  0
LINE
  8
0
 10
-11.946000
 11
-12.216000
 20
-13.153000
 21
-13.577000
  0
LINE
  8
0
 10
-12.216000
 11
-12.535000
 20
-13.577000
 21
-13.964000
  0
LINE
  8
0
 10
-12.535000
 11
-12.902000
 20
-13.964000
 21
-14.308000
  0
LINE
  8
0
 10
-12.902000
 11
-13.308000
 20
-14.308000
 21
-14.603000
  0
LINE
  8
0
 10
-13.308000
 11
-13.749000
 20
-14.603000
 21
-14.846000
  0
LINE
  8
0
 10
-13.749000
 11
-14.215000
 20
-14.846000
 21
-15.030000
  0
LINE
  8
0
 10
-14.215000
 11
-14.702000
 20
-15.030000
 21
-15.155000
  0
LINE
  8
0
 10
-14.702000
 11
-15.200000
 20
-15.155000
 21
-15.218000
  0
LINE
  8
0
 10
-15.200000
 11
-15.703000
 20
-15.218000
 21
-15.218000
  0
LINE
  8
0
 10
-15.703000
 11
-16.201000
 20
-15.218000
 21
-15.155000
  0
LINE
  8
0
 10
-16.201000
 11
-16.688000
 20
-15.155000
 21
-15.030000
  0
LINE
  8
0
 10
-16.688000
 11
-17.154000
 20
-15.030000
 21
-14.845000
  0
LINE
  8
0
 10
-17.154000
 11
-17.595000
 20
-14.845000
 21
-14.603000
  0
LINE
  8
0
 10
-17.595000
 11
-18.001000
 20
-14.603000
 21
-14.308000
  0
LINE
  8
0
 10
-18.001000
 11
-18.367000
 20
-14.308000
 21
-13.964000
  0
LINE
  8
0
 10
-18.367000
 11
-18.687000
 20
-13.964000
 21
-13.577000
  0
LINE
  8
0
 10
-18.687000
 11
-18.956000
 20
-13.577000
 21
-13.153000
  0
LINE
  8
0
 10
-18.956000
 11
-19.170000
 20
-13.153000
 21
-12.698000
  0
LINE
  8
0
 10
-19.170000
 11
-19.325000
 20
-12.698000
 21
-12.221000
  0
LINE
  8
0
 10
-19.325000
 11
-19.420000
 20
-12.221000
 21
-11.727000
  0
LINE
  8
0
 10
-19.420000
 11
-19.451000
 20
-11.727000
 21
-11.226000
  0
LINE
  8
0
 10
-19.451000
 11
-19.420000
 20
11.226000
 21
11.727000
  0
LINE
  8
0
 10
-19.420000
 11
-19.325000
 20
11.727000
 21
12.221000
  0
LINE
  8
0
 10
-19.325000
 11
-19.170000
 20
12.221000
 21
12.698000
  0
LINE
  8
0
 10
-19.170000
 11
-18.956000
 20
12.698000
 21
13.153000
  0
LINE
  8
0
 10
-18.956000
 11
-18.687000
 20
13.153000
 21
13.577000
  0
LINE
  8
0
 10
-18.687000
 11
-18.367000
 20
13.577000
 21
13.964000
  0
LINE
  8
0
 10
-18.367000
 11
-18.001000
 20
13.964000
 21
14.308000
  0
LINE
  8
0
 10
-18.001000
 11
-17.595000
 20
14.308000
 21
14.603000
  0
LINE
  8
0
 10
-17.595000
 11
-17.154000
 20
14.603000
 21
14.845000
  0
LINE
  8
0
 10
-17.154000
 11
-16.688000
 20
14.845000
 21
15.030000
  0
LINE
  8
0
 10
-16.688000
 11
-16.201000
 20
15.030000
 21
15.155000
  0
LINE
  8
0
 10
-16.201000
 11
-15.703000
 20
15.155000
 21
15.218000
  0
LINE
  8
0
 10
-15.703000
 11
-15.200000
 20
15.218000
 21
15.218000
  0
LINE
  8
0
 10
-15.200000
 11
-14.702000
 20
15.218000
 21
15.155000
  0
LINE
  8
0
 10
-14.702000
 11
-14.215000
 20
15.155000
 21
15.030000
  0
LINE
  8
0
 10
-14.215000
 11
-13.749000
 20
15.030000
 21
14.846000
  0
LINE
  8
0
 10
-13.749000
 11
-13.308000
 20
14.846000
 21
14.603000
  0
LINE
  8
0
 10
-13.308000
 11
-12.902000
 20
14.603000
 21
14.308000
  0
LINE
  8
0
 10
-12.902000
 11
-12.535000
 20
14.308000
 21
13.964000
  0
LINE
  8
0
 10
-12.535000
 11
-12.216000
 20
13.964000
 21
13.577000
  0
LINE
  8
0
 10
-12.216000
 11
-11.946000
 20
13.577000
 21
13.153000
  0
LINE
  8
0
 10
-11.946000
 11
-11.733000
 20
13.153000
 21
12.699000
  0
LINE
  8
0
 10
-11.733000
 11
-11.577000
 20
12.699000
 21
12.221000
  0
LINE
  8
0
 10
-11.577000
 11
-11.483000
 20
12.221000
 21
11.727000
  0
LINE
  8
0
 10
-11.483000
 11
-11.452000
 20
11.727000
 21
11.226000
  0
LINE
  8
0
 10
-11.452000
 11
-11.483000
 20
11.226000
 21
10.725000
  0
LINE
  8
0
 10
-11.483000
 11
-11.577000
 20
10.725000
 21
10.231000
  0
LINE
  8
0
 10
-11.577000
 11
-11.732000
 20
10.231000
 21
9.754000
  0
LINE
  8
0
 10
-11.732000
 11
-11.947000
 20
9.754000
 21
9.299000
  0
LINE
  8
0
 10
-11.947000
 11
-12.215000
 20
9.299000
 21
8.875000
  0
LINE
  8
0
 10
-12.215000
 11
-12.536000
 20
8.875000
 21
8.488000
  0
LINE
  8
0
 10
-12.536000
 11
-12.902000
 20
8.488000
 21
8.144000
  0
LINE
  8
0
 10
-12.902000
 11
-13.308000
 20
8.144000
 21
7.849000
  0
LINE
  8
0
 10
-13.308000
 11
-13.748000
 20
7.849000
 21
7.607000
  0
LINE
  8
0
 10
-13.748000
 11
-14.215000
 20
7.607000
 21
7.422000
  0
LINE
  8
0
 10
-14.215000
 11
-14.702000
 20
7.422000
 21
7.297000
  0
LINE
  8
0
 10
-14.702000
 11
-15.200000
 20
7.297000
 21
7.234000
  0
LINE
  8
0
 10
-15.200000
 11
-15.703000
 20
7.234000
 21
7.234000
  0
LINE
  8
0
 10
-15.703000
 11
-16.201000
 20
7.234000
 21
7.297000
  0
LINE
  8
0
 10
-16.201000
 11
-16.687000
 20
7.297000
 21
7.422000
  0
LINE
  8
0
 10
-16.687000
 11
-17.154000
 20
7.422000
 21
7.607000
  0
LINE
  8
0
 10
-17.154000
 11
-17.595000
 20
7.607000
 21
7.849000
  0
LINE
  8
0
 10
-17.595000
 11
-18.001000
 20
7.849000
 21
8.144000
  0
LINE
  8
0
 10
-18.001000
 11
-18.368000
 20
8.144000
 21
8.488000
  0
LINE
  8
0
 10
-18.368000
 11
-18.687000
 20
8.488000
 21
8.875000
  0
LINE
  8
0
 10
-18.687000
 11
-18.956000
 20
8.875000
 21
9.299000
  0
LINE
  8
0
 10
-18.956000
 11
-19.170000
 20
9.299000
 21
9.754000
  0
LINE
  8
0
 10
-19.170000
 11
-19.326000
 20
9.754000
 21
10.232000
  0
LINE
  8
0
 10
-19.326000
 11
-19.420000
 20
10.232000
 21
10.725000
  0
LINE
  8
0
 10
-19.420000
 11
-19.451000
 20
10.725000
 21
11.226000
  0
LINE
  8
0
 10
-9.902000
 11
-9.870000
 20
-18.164000
 21
-17.663000
  0
LINE
  8
0
 10
-9.870000
 11
-9.776000
 20
-17.663000
 21
-17.169000
  0
LINE
  8
0
 10
-9.776000
 11
-9.621000
 20
-17.169000
 21
-16.692000
  0
LINE
  8
0
 10
-9.621000
 11
-9.407000
 20
-16.692000
 21
-16.237000
  0
LINE
  8
0
 10
-9.407000
 11
-9.138000
 20
-16.237000
 21
-15.813000
  0
LINE
  8
0
 10
-9.138000
 11
-8.818000
 20
-15.813000
 21
-15.426000
  0
LINE
  8
0
 10
-8.818000
 11
-8.451000
 20
-15.426000
 21
-15.083000
  0
LINE
  8
0
 10
-8.451000
 11
-8.045000
 20
-15.083000
 21
-14.787000
  0
LINE
  8
0
 10
-8.045000
 11
-7.605000
 20
-14.787000
 21
-14.545000
  0
LINE
  8
0
 10
-7.605000
 11
-7.138000
 20
-14.545000
 21
-14.360000
  0
LINE
  8
0
 10
-7.138000
 11
-6.651000
 20
-14.360000
 21
-14.235000
  0
LINE
  8
0
 10
-6.651000
 11
-6.153000
 20
-14.235000
 21
-14.172000
  0
LINE
  8
0
 10
-6.153000
 11
-5.651000
 20
-14.172000
 21
-14.172000
  0
LINE
  8
0
 10
-5.651000
 11
-5.152000
 20
-14.172000
 21
-14.236000
  0
LINE
  8
0
 10
-5.152000
 11
-4.666000
 20
-14.236000
 21
-14.360000
  0
LINE
  8
0
 10
-4.666000
 11
-4.199000
 20
-14.360000
 21
-14.545000
  0
LINE
  8
0
 10
-4.199000
 11
-3.758000
 20
-14.545000
 21
-14.787000
  0
LINE
  8
0
 10
-3.758000
 11
-3.353000
 20
-14.787000
 21
-15.082000
  0
LINE
  8
0
 10
-3.353000
 11
-2.986000
 20
-15.082000
 21
-15.426000
  0
LINE
  8
0
 10
-2.986000
 11
-2.666000
 20
-15.426000
 21
-15.813000
  0
LINE
  8
0
 10
-2.666000
 11
-2.397000
 20
-15.813000
 21
-16.237000
  0
LINE
  8
0
 10
-2.397000
 11
-2.183000
 20
-16.237000
 21
-16.691000
  0
LINE
  8
0
 10
-2.183000
 11
-2.028000
 20
-16.691000
 21
-17.170000
  0
LINE
  8
0
 10
-2.028000
 11
-1.934000
 20
-17.170000
 21
-17.663000
  0
LINE
  8
0
 10
-1.934000
 11
-1.902000
 20
-17.663000
 21
-18.164000
  0
LINE
  8
0
 10
-1.902000
 11
-1.933000
 20
-18.164000
 21
-18.665000
  0
LINE
  8
0
 10
-1.933000
 11
-2.028000
 20
-18.665000
 21
-19.159000
  0
LINE
  8
0
 10
-2.028000
 11
-2.183000
 20
-19.159000
 21
-19.637000
  0
LINE
  8
0
 10
-2.183000
 11
-2.397000
 20
-19.637000
 21
-20.092000
  0
LINE
  8
0
 10
-2.397000
 11
-2.666000
 20
-20.092000
 21
-20.515000
  0
LINE
  8
0
 10
-2.666000
 11
-2.986000
 20
-20.515000
 21
-20.902000
  0
LINE
  8
0
 10
-2.986000
 11
-3.352000
 20
-20.902000
 21
-21.246000
  0
LINE
  8
0
 10
-3.352000
 11
-3.759000
 20
-21.246000
 21
-21.542000
  0
LINE
  8
0
 10
-3.759000
 11
-4.199000
 20
-21.542000
 21
-21.784000
  0
LINE
  8
0
 10
-4.199000
 11
-4.666000
 20
-21.784000
 21
-21.968000
  0
LINE
  8
0
 10
-4.666000
 11
-5.152000
 20
-21.968000
 21
-22.093000
  0
LINE
  8
0
 10
-5.152000
 11
-5.651000
 20
-22.093000
 21
-22.156000
  0
LINE
  8
0
 10
-5.651000
 11
-6.153000
 20
-22.156000
 21
-22.156000
  0
LINE
  8
0
 10
-6.153000
 11
-6.652000
 20
-22.156000
 21
-22.093000
  0
LINE
  8
0
 10
-6.652000
 11
-7.138000
 20
-22.093000
 21
-21.968000
  0
LINE
  8
0
 10
-7.138000
 11
-7.605000
 20
-21.968000
 21
-21.783000
  0
LINE
  8
0
 10
-7.605000
 11
-8.045000
 20
-21.783000
 21
-21.541000
  0
LINE
  8
0
 10
-8.045000
 11
-8.451000
 20
-21.541000
 21
-21.246000
  0
LINE
  8
0
 10
-8.451000
 11
-8.818000
 20
-21.246000
 21
-20.902000
  0
LINE
  8
0
 10
-8.818000
 11
-9.138000
 20
-20.902000
 21
-20.515000
  0
LINE
  8
0
 10
-9.138000
 11
-9.407000
 20
-20.515000
 21
-20.091000
  0
LINE
  8
0
 10
-9.407000
 11
-9.621000
 20
-20.091000
 21
-19.637000
  0
LINE
  8
0
 10
-9.621000
 11
-9.776000
 20
-19.637000
 21
-19.159000
  0
LINE
  8
0
 10
-9.776000
 11
-9.870000
 20
-19.159000
 21
-18.666000
  0
LINE
  8
0
 10
-9.870000
 11
-9.902000
 20
-18.666000
 21
-18.164000
  0
LINE
  8
0
 10
-9.902000
 11
-9.870000
 20
18.164000
 21
18.666000
  0
LINE
  8
0
 10
-9.870000
 11
-9.776000
 20
18.666000
 21
19.159000
  0
LINE
  8
0
 10
-9.776000
 11
-9.621000
 20
19.159000
 21
19.637000
  0
LINE
  8
0
 10
-9.621000
 11
-9.407000
 20
19.637000
 21
20.091000
  0
LINE
  8
0
 10
-9.407000
 11
-9.138000
 20
20.091000
 21
20.515000
  0
LINE
  8
0
 10
-9.138000
 11
-8.818000
 20
20.515000
 21
20.902000
  0
LINE
  8
0
 10
-8.818000
 11
-8.451000
 20
20.902000
 21
21.246000
  0
LINE
  8
0
 10
-8.451000
 11
-8.045000
 20
21.246000
 21
21.541000
  0
LINE
  8
0
 10
-8.045000
 11
-7.605000
 20
21.541000
 21
21.783000
  0
LINE
  8
0
 10
-7.605000
 11
-7.138000
 20
21.783000
 21
21.968000
  0
LINE
  8
0
 10
-7.138000
 11
-6.652000
 20
21.968000
 21
22.093000
  0
LINE
  8
0
 10
-6.652000
 11
-6.153000
 20
22.093000
 21
22.156000
  0
LINE
  8
0
 10
-6.153000
 11
-5.651000
 20
22.156000
 21
22.156000
  0
LINE
  8
0
 10
-5.651000
 11
-5.152000
 20
22.156000
 21
22.093000
  0
LINE
  8
0
 10
-5.152000
 11
-4.666000
 20
22.093000
 21
21.968000
  0
LINE
  8
0
 10
-4.666000
 11
-4.199000
 20
21.968000
 21
21.784000
  0
LINE
  8
0
 10
-4.199000
 11
-3.759000
 20
21.784000
 21
21.542000
  0
LINE
  8
0
 10
-3.759000
 11
-3.352000
 20
21.542000
 21
21.246000
  0
LINE
  8
0
 10
-3.352000
 11
-2.986000
 20
21.246000
 21
20.902000
  0
LINE
  8
0
 10
-2.986000
 11
-2.666000
 20
20.902000
 21
20.515000
  0
LINE
  8
0
 10
-2.666000
 11
-2.397000
 20
20.515000
 21
20.092000
  0
LINE
  8
0
 10
-2.397000
 11
-2.183000
 20
20.092000
 21
19.637000
  0
LINE
  8
0
 10
-2.183000
 11
-2.028000
 20
19.637000
 21
19.159000
  0
LINE
  8
0
 10
-2.028000
 11
-1.933000
 20
19.159000
 21
18.665000
  0
LINE
  8
0
 10
-1.933000
 11
-1.902000
 20
18.665000
 21
18.164000
  0
LINE
  8
0
 10
-1.902000
 11
-1.934000
 20
18.164000
 21
17.663000
  0
LINE
  8
0
 10
-1.934000
 11
-2.028000
 20
17.663000
 21
17.170000
  0
LINE
  8
0
 10
-2.028000
 11
-2.183000
 20
17.170000
 21
16.691000
  0
LINE
  8
0
 10
-2.183000
 11
-2.397000
 20
16.691000
 21
16.237000
  0
LINE
  8
0
 10
-2.397000
 11
-2.666000
 20
16.237000
 21
15.813000
  0
LINE
  8
0
 10
-2.666000
 11
-2.986000
 20
15.813000
 21
15.426000
  0
LINE
  8
0
 10
-2.986000
 11
-3.353000
 20
15.426000
 21
15.082000
  0
LINE
  8
0
 10
-3.353000
 11
-3.758000
 20
15.082000
 21
14.787000
  0
LINE
  8
0
 10
-3.758000
 11
-4.199000
 20
14.787000
 21
14.545000
  0
LINE
  8
0
 10
-4.199000
 11
-4.666000
 20
14.545000
 21
14.360000
  0
LINE
  8
0
 10
-4.666000
 11
-5.152000
 20
14.360000
 21
14.236000
  0
LINE
  8
0
 10
-5.152000
 11
-5.651000
 20
14.236000
 21
14.172000
  0
LINE
  8
0
 10
-5.651000
 11
-6.153000
 20
14.172000
 21
14.172000
  0
LINE
  8
0
 10
-6.153000
 11
-6.651000
 20
14.172000
 21
14.235000
  0
LINE
  8
0
 10
-6.651000
 11
-7.138000
 20
14.235000
 21
14.360000
  0
LINE
  8
0
 10
-7.138000
 11
-7.605000
 20
14.360000
 21
14.545000
  0
LINE
  8
0
 10
-7.605000
 11
-8.045000
 20
14.545000
 21
14.787000
  0
LINE
  8
0
 10
-8.045000
 11
-8.451000
 20
14.787000
 21
15.083000
  0
LINE
  8
0
 10
-8.451000
 11
-8.818000
 20
15.083000
 21
15.426000
  0
LINE
  8
0
 10
-8.818000
 11
-9.138000
 20
15.426000
 21
15.813000
  0
LINE
  8
0
 10
-9.138000
 11
-9.407000
 20
15.813000
 21
16.237000
  0
LINE
  8
0
 10
-9.407000
 11
-9.621000
 20
16.237000
 21
16.692000
  0
LINE
  8
0
 10
-9.621000
 11
-9.776000
 20
16.692000
 21
17.169000
  0
LINE
  8
0
 10
-9.776000
 11
-9.870000
 20
17.169000
 21
17.663000
  0
LINE
  8
0
 10
-9.870000
 11
-9.902000
 20
17.663000
 21
18.164000
  0
LINE
  8
0
 10
1.902000
 11
1.934000
 20
-18.164000
 21
-17.663000
  0
LINE
  8
0
 10
1.934000
 11
2.028000
 20
-17.663000
 21
-17.170000
  0
LINE
  8
0
 10
2.028000
 11
2.183000
 20
-17.170000
 21
-16.691000
  0
LINE
  8
0
 10
2.183000
 11
2.397000
 20
-16.691000
 21
-16.237000
  0
LINE
  8
0
 10
2.397000
 11
2.666000
 20
-16.237000
 21
-15.813000
  0
LINE
  8
0
 10
2.666000
 11
2.986000
 20
-15.813000
 21
-15.426000
  0
LINE
  8
0
 10
2.986000
 11
3.353000
 20
-15.426000
 21
-15.082000
  0
LINE
  8
0
 10
3.353000
 11
3.758000
 20
-15.082000
 21
-14.787000
  0
LINE
  8
0
 10
3.758000
 11
4.199000
 20
-14.787000
 21
-14.545000
  0
LINE
  8
0
 10
4.199000
 11
4.666000
 20
-14.545000
 21
-14.360000
  0
LINE
  8
0
 10
4.666000
 11
5.152000
 20
-14.360000
 21
-14.236000
  0
LINE
  8
0
 10
5.152000
 11
5.651000
 20
-14.236000
 21
-14.172000
  0
LINE
  8
0
 10
5.651000
 11
6.153000
 20
-14.172000
 21
-14.172000
  0
LINE
  8
0
 10
6.153000
 11
6.651000
 20
-14.172000
 21
-14.235000
  0
LINE
  8
0
 10
6.651000
 11
7.138000
 20
-14.235000
 21
-14.360000
  0
LINE
  8
0
 10
7.138000
 11
7.605000
 20
-14.360000
 21
-14.545000
  0
LINE
  8
0
 10
7.605000
 11
8.045000
 20
-14.545000
 21
-14.787000
  0
LINE
  8
0
 10
8.045000
 11
8.451000
 20
-14.787000
 21
-15.083000
  0
LINE
  8
0
 10
8.451000
 11
8.818000
 20
-15.083000
 21
-15.426000
  0
LINE
  8
0
 10
8.818000
 11
9.138000
 20
-15.426000
 21
-15.813000
  0
LINE
  8
0
 10
9.138000
 11
9.407000
 20
-15.813000
 21
-16.237000
  0
LINE
  8
0
 10
9.407000
 11
9.621000
 20
-16.237000
 21
-16.692000
  0
LINE
  8
0
 10
9.621000
 11
9.776000
 20
-16.692000
 21
-17.169000
  0
LINE
  8
0
 10
9.776000
 11
9.870000
 20
-17.169000
 21
-17.663000
  0
LINE
  8
0
 10
9.870000
 11
9.902000
 20
-17.663000
 21
-18.164000
  0
LINE
  8
0
 10
9.902000
 11
9.870000
 20
-18.164000
 21
-18.666000
  0
LINE
  8
0
 10
9.870000
 11
9.776000
 20
-18.666000
 21
-19.159000
  0
LINE
  8
0
 10
9.776000
 11
9.621000
 20
-19.159000
 21
-19.637000
  0
LINE
  8
0
 10
9.621000
 11
9.407000
 20
-19.637000
 21
-20.091000
  0
LINE
  8
0
 10
9.407000
 11
9.138000
 20
-20.091000
 21
-20.515000
  0
LINE
  8
0
 10
9.138000
 11
8.818000
 20
-20.515000
 21
-20.902000
  0
LINE
  8
0
 10
8.818000
 11
8.451000
 20
-20.902000
 21
-21.246000
  0
LINE
  8
0
 10
8.451000
 11
8.045000
 20
-21.246000
 21
-21.541000
  0
LINE
  8
0
 10
8.045000
 11
7.605000
 20
-21.541000
 21
-21.783000
  0
LINE
  8
0
 10
7.605000
 11
7.138000
 20
-21.783000
 21
-21.968000
  0
LINE
  8
0
 10
7.138000
 11
6.652000
 20
-21.968000
 21
-22.093000
  0
LINE
  8
0
 10
6.652000
 11
6.153000
 20
-22.093000
 21
-22.156000
  0
LINE
  8
0
 10
6.153000
 11
5.651000
 20
-22.156000
 21
-22.156000
  0
LINE
  8
0
 10
5.651000
 11
5.152000
 20
-22.156000
 21
-22.093000
  0
LINE
  8
0
 10
5.152000
 11
4.666000
 20
-22.093000
 21
-21.968000
  0
LINE
  8
0
 10
4.666000
 11
4.199000
 20
-21.968000
 21
-21.784000
  0
LINE
  8
0
 10
4.199000
 11
3.759000
 20
-21.784000
 21
-21.542000
  0
LINE
  8
0
 10
3.759000
 11
3.352000
 20
-21.542000
 21
-21.246000
  0
LINE
  8
0
 10
3.352000
 11
2.986000
 20
-21.246000
 21
-20.902000
  0
LINE
  8
0
 10
2.986000
 11
2.666000
 20
-20.902000
 21
-20.515000
  0
LINE
  8
0
 10
2.666000
 11
2.397000
 20
-20.515000
 21
-20.092000
  0
LINE
  8
0
 10
2.397000
 11
2.183000
 20
-20.092000
 21
-19.637000
  0
LINE
  8
0
 10
2.183000
 11
2.028000
 20
-19.637000
 21
-19.159000
  0
LINE
  8
0
 10
2.028000
 11
1.933000
 20
-19.159000
 21
-18.665000
  0
LINE
  8
0
 10
1.933000
 11
1.902000
 20
-18.665000
 21
-18.164000
  0
LINE
  8
0
 10
1.902000
 11
1.933000
 20
18.164000
 21
18.665000
  0
LINE
  8
0
 10
1.933000
 11
2.028000
 20
18.665000
 21
19.159000
  0
LINE
  8
0
 10
2.028000
 11
2.183000
 20
19.159000
 21
19.637000
  0
LINE
  8
0
 10
2.183000
 11
2.397000
 20
19.637000
 21
20.092000
  0
LINE
  8
0
 10
2.397000
 11
2.666000
 20
20.092000
 21
20.515000
  0
LINE
  8
0
 10
2.666000
 11
2.986000
 20
20.515000
 21
20.902000
  0
LINE
  8
0
 10
2.986000
 11
3.352000
 20
20.902000
 21
21.246000
  0
LINE
  8
0
 10
3.352000
 11
3.759000
 20
21.246000
 21
21.542000
  0
LINE
  8
0
 10
3.759000
 11
4.199000
 20
21.542000
 21
21.784000
  0
LINE
  8
0
 10
4.199000
 11
4.666000
 20
21.784000
 21
21.968000
  0
LINE
  8
0
 10
4.666000
 11
5.152000
 20
21.968000
 21
22.093000
  0
LINE
  8
0
 10
5.152000
 11
5.651000
 20
22.093000
 21
22.156000
  0
LINE
  8
0
 10
5.651000
 11
6.153000
 20
22.156000
 21
22.156000
  0
LINE
  8
0
 10
6.153000
 11
6.652000
 20
22.156000
 21
22.093000
  0
LINE
  8
0
 10
6.652000
 11
7.138000
 20
22.093000
 21
21.968000
  0
LINE
  8
0
 10
7.138000
 11
7.605000
 20
21.968000
 21
21.783000
  0
LINE
  8
0
 10
7.605000
 11
8.045000
 20
21.783000
 21
21.541000
  0
LINE
  8
0
 10
8.045000
 11
8.451000
 20
21.541000
 21
21.246000
  0
LINE
  8
0
 10
8.451000
 11
8.818000
 20
21.246000
 21
20.902000
  0
LINE
  8
0
 10
8.818000
 11
9.138000
 20
20.902000
 21
20.515000
  0
LINE
  8
0
 10
9.138000
 11
9.407000
 20
20.515000
 21
20.091000
  0
LINE
  8
0
 10
9.407000
 11
9.621000
 20
20.091000
 21
19.637000
  0
LINE
  8
0
 10
9.621000
 11
9.776000
 20
19.637000
 21
19.159000
  0
LINE
  8
0
 10
9.776000
 11
9.870000
 20
19.159000
 21
18.666000
  0
LINE
  8
0
 10
9.870000
 11
9.902000
 20
18.666000
 21
18.164000
  0
LINE
  8
0
 10
9.902000
 11
9.870000
 20
18.164000
 21
17.663000
  0
LINE
  8
0
 10
9.870000
 11
9.776000
 20
17.663000
 21
17.169000
  0
LINE
  8
0
 10
9.776000
 11
9.621000
 20
17.169000
 21
16.692000
  0
LINE
  8
0
 10
9.621000
 11
9.407000
 20
16.692000
 21
16.237000
  0
LINE
  8
0
 10
9.407000
 11
9.138000
 20
16.237000
 21
15.813000
  0
LINE
  8
0
 10
9.138000
 11
8.818000
 20
15.813000
 21
15.426000
  0
LINE
  8
0
 10
8.818000
 11
8.451000
 20
15.426000
 21
15.083000
  0
LINE
  8
0
 10
8.451000
 11
8.045000
 20
15.083000
 21
14.787000
  0
LINE
  8
0
 10
8.045000
 11
7.605000
 20
14.787000
 21
14.545000
  0
LINE
  8
0
 10
7.605000
 11
7.138000
 20
14.545000
 21
14.360000
  0
LINE
  8
0
 10
7.138000
 11
6.651000
 20
14.360000
 21
14.235000
  0
LINE
  8
0
 10
6.651000
 11
6.153000
 20
14.235000
 21
14.172000
  0
LINE
  8
0
 10
6.153000
 11
5.651000
 20
14.172000
 21
14.172000
  0
LINE
  8
0
 10
5.651000
 11
5.152000
 20
14.172000
 21
14.236000
  0
LINE
  8
0
 10
5.152000
 11
4.666000
 20
14.236000
 21
14.360000
  0
LINE
  8
0
 10
4.666000
 11
4.199000
 20
14.360000
 21
14.545000
  0
LINE
  8
0
 10
4.199000
 11
3.758000
 20
14.545000
 21
14.787000
  0
LINE
  8
0
 10
3.758000
 11
3.353000
 20
14.787000
 21
15.082000
  0
LINE
  8
0
 10
3.353000
 11
2.986000
 20
15.082000
 21
15.426000
  0
LINE
  8
0
 10
2.986000
 11
2.666000
 20
15.426000
 21
15.813000
  0
LINE
  8
0
 10
2.666000
 11
2.397000
 20
15.813000
 21
16.237000
  0
LINE
  8
0
 10
2.397000
 11
2.183000
 20
16.237000
 21
16.691000
  0
LINE
  8
0
 10
2.183000
 11
2.028000
 20
16.691000
 21
17.170000
  0
LINE
  8
0
 10
2.028000
 11
1.934000
 20
17.170000
 21
17.663000
  0
LINE
  8
0
 10
1.934000
 11
1.902000
 20
17.663000
 21
18.164000
  0
LINE
  8
0
 10
11.452000
 11
11.483000
 20
-11.226000
 21
-10.725000
  0
LINE
  8
0
 10
11.483000
 11
11.577000
 20
-10.725000
 21
-10.231000
  0
LINE
  8
0
 10
11.577000
 11
11.732000
 20
-10.231000
 21
-9.754000
  0
LINE
  8
0
 10
11.732000
 11
11.947000
 20
-9.754000
 21
-9.299000
  0
LINE
  8
0
 10
11.947000
 11
12.215000
 20
-9.299000
 21
-8.875000
  0
LINE
  8
0
 10
12.215000
 11
12.536000
 20
-8.875000
 21
-8.488000
  0
LINE
  8
0
 10
12.536000
 11
12.902000
 20
-8.488000
 21
-8.144000
  0
LINE
  8
0
 10
12.902000
 11
13.308000
 20
-8.144000
 21
-7.849000
  0
LINE
  8
0
 10
13.308000
 11
13.748000
 20
-7.849000
 21
-7.607000
  0
LINE
  8
0
 10
13.748000
 11
14.215000
 20
-7.607000
 21
-7.422000
  0
LINE
  8
0
 10
14.215000
 11
14.702000
 20
-7.422000
 21
-7.297000
  0
LINE
  8
0
 10
14.702000
 11
15.200000
 20
-7.297000
 21
-7.234000
  0
LINE
  8
0
 10
15.200000
 11
15.703000
 20
-7.234000
 21
-7.234000
  0
LINE
  8
0
 10
15.703000
 11
16.201000
 20
-7.234000
 21
-7.297000
  0
LINE
  8
0
 10
16.201000
 11
16.687000
 20
-7.297000
 21
-7.422000
  0
LINE
  8
0
 10
16.687000
 11
17.154000
 20
-7.422000
 21
-7.607000
  0
LINE
  8
0
 10
17.154000
 11
17.595000
 20
-7.607000
 21
-7.849000
  0
LINE
  8
0
 10
17.595000
 11
18.001000
 20
-7.849000
 21
-8.144000
  0
LINE
  8
0
 10
18.001000
 11
18.368000
 20
-8.144000
 21
-8.488000
  0
LINE
  8
0
 10
18.368000
 11
18.687000
 20
-8.488000
 21
-8.875000
  0
LINE
  8
0
 10
18.687000
 11
18.956000
 20
-8.875000
 21
-9.299000
  0
LINE
  8
0
 10
18.956000
 11
19.170000
 20
-9.299000
 21
-9.754000
  0
LINE
  8
0
 10
19.170000
 11
19.326000
 20
-9.754000
 21
-10.232000
  0
LINE
  8
0
 10
19.326000
 11
19.420000
 20
-10.232000
 21
-10.725000
  0
LINE
  8
0
 10
19.420000
 11
19.451000
 20
-10.725000
 21
-11.226000
  0
LINE
  8
0
 10
19.451000
 11
19.420000
 20
-11.226000
 21
-11.727000
  0
LINE
  8
0
 10
19.420000
 11
19.325000
 20
-11.727000
 21
-12.221000
  0
LINE
  8
0
 10
19.325000
 11
19.170000
 20
-12.221000
 21
-12.698000
  0
LINE
  8
0
 10
19.170000
 11
18.956000
 20
-12.698000
 21
-13.153000
  0
LINE
  8
0
 10
18.956000
 11
18.687000
 20
-13.153000
 21
-13.577000
  0
LINE
  8
0
 10
18.687000
 11
18.367000
 20
-13.577000
 21
-13.964000
  0
LINE
  8
0
 10
18.367000
 11
18.001000
 20
-13.964000
 21
-14.308000
  0
LINE
  8
0
 10
18.001000
 11
17.595000
 20
-14.308000
 21
-14.603000
  0
LINE
  8
0
 10
17.595000
 11
17.154000
 20
-14.603000
 21
-14.845000
  0
LINE
  8
0
 10
17.154000
 11
16.688000
 20
-14.845000
 21
-15.030000
  0
LINE
  8
0
 10
16.688000
 11
16.201000
 20
-15.030000
 21
-15.155000
  0
LINE
  8
0
 10
16.201000
 11
15.703000
 20
-15.155000
 21
-15.218000
  0
LINE
  8
0
 10
15.703000
 11
15.200000
 20
-15.218000
 21
-15.218000
  0
LINE
  8
0
 10
15.200000
 11
14.702000
 20
-15.218000
 21
-15.155000
  0
LINE
  8
0
 10
14.702000
 11
14.215000
 20
-15.155000
 21
-15.030000
  0
LINE
  8
0
 10
14.215000
 11
13.749000
 20
-15.030000
 21
-14.846000
  0
LINE
  8
0
 10
13.749000
 11
13.308000
 20
-14.846000
 21
-14.603000
  0
LINE
  8
0
 10
13.308000
 11
12.902000
 20
-14.603000
 21
-14.308000
  0
LINE
  8
0
 10
12.902000
 11
12.535000
 20
-14.308000
 21
-13.964000
  0
LINE
  8
0
 10
12.535000
 11
12.216000
 20
-13.964000
 21
-13.577000
  0
LINE
  8
0
 10
12.216000
 11
11.946000
 20
-13.577000
 21
-13.153000
  0
LINE
  8
0
 10
11.946000
 11
11.733000
 20
-13.153000
 21
-12.699000
  0
LINE
  8
0
 10
11.733000
 11
11.577000
 20
-12.699000
 21
-12.221000
  0
LINE
  8
0
 10
11.577000
 11
11.483000
 20
-12.221000
 21
-11.727000
  0
LINE
  8
0
 10
11.483000
 11
11.452000
 20
-11.727000
 21
-11.226000
  0
LINE
  8
0
 10
11.452000
 11
11.483000
 20
11.226000
 21
11.727000
  0
LINE
  8
0
 10
11.483000
 11
11.577000
 20
11.727000
 21
12.221000
  0
LINE
  8
0
 10
11.577000
 11
11.733000
 20
12.221000
 21
12.699000
  0
LINE
  8
0
 10
11.733000
 11
11.946000
 20
12.699000
 21
13.153000
  0
LINE
  8
0
 10
11.946000
 11
12.216000
 20
13.153000
 21
13.577000
  0
LINE
  8
0
 10
12.216000
 11
12.535000
 20
13.577000
 21
13.964000
  0
LINE
  8
0
 10
12.535000
 11
12.902000
 20
13.964000
 21
14.308000
  0
LINE
  8
0
 10
12.902000
 11
13.308000
 20
14.308000
 21
14.603000
  0
LINE
  8
0
 10
13.308000
 11
13.749000
 20
14.603000
 21
14.846000
  0
LINE
  8
0
 10
13.749000
 11
14.215000
 20
14.846000
 21
15.030000
  0
LINE
  8
0
 10
14.215000
 11
14.702000
 20
15.030000
 21
15.155000
  0
LINE
  8
0
 10
14.702000
 11
15.200000
 20
15.155000
 21
15.218000
  0
LINE
  8
0
 10
15.200000
 11
15.703000
 20
15.218000
 21
15.218000
  0
LINE
  8
0
 10
15.703000
 11
16.201000
 20
15.218000
 21
15.155000
  0
LINE
  8
0
 10
16.201000
 11
16.688000
 20
15.155000
 21
15.030000
  0
LINE
  8
0
 10
16.688000
 11
17.154000
 20
15.030000
 21
14.845000
  0
LINE
  8
0
 10
17.154000
 11
17.595000
 20
14.845000
 21
14.603000
  0
LINE
  8
0
 10
17.595000
 11
18.001000
 20
14.603000
 21
14.308000
  0
LINE
  8
0
 10
18.001000
 11
18.367000
 20
14.308000
 21
13.964000
  0
LINE
  8
0
 10
18.367000
 11
18.687000
 20
13.964000
 21
13.577000
  0
LINE
  8
0
 10
18.687000
 11
18.956000
 20
13.577000
 21
13.153000
  0
LINE
  8
0
 10
18.956000
 11
19.170000
 20
13.153000
 21
12.698000
  0
LINE
  8
0
 10
19.170000
 11
19.325000
 20
12.698000
 21
12.221000
  0
LINE
  8
0
 10
19.325000
 11
19.420000
 20
12.221000
 21
11.727000
  0
LINE
  8
0
 10
19.420000
 11
19.451000
 20
11.727000
 21
11.226000
  0
LINE
  8
0
 10
19.451000
 11
19.420000
 20
11.226000
 21
10.725000
  0
LINE
  8
0
 10
19.420000
 11
19.326000
 20
10.725000
 21
10.232000
  0
LINE
  8
0
 10
19.326000
 11
19.170000
 20
10.232000
 21
9.754000
  0
LINE
  8
0
 10
19.170000
 11
18.956000
 20
9.754000
 21
9.299000
  0
LINE
  8
0
 10
18.956000
 11
18.687000
 20
9.299000
 21
8.875000
  0
LINE
  8
0
 10
18.687000
 11
18.368000
 20
8.875000
 21
8.488000
  0
LINE
  8
0
 10
18.368000
 11
18.001000
 20
8.488000
 21
8.144000
  0
LINE
  8
0
 10
18.001000
 11
17.595000
 20
8.144000
 21
7.849000
  0
LINE
  8
0
 10
17.595000
 11
17.154000
 20
7.849000
 21
7.607000
  0
LINE
  8
0
 10
17.154000
 11
16.687000
 20
7.607000
 21
7.422000
  0
LINE
  8
0
 10
16.687000
 11
16.201000
 20
7.422000
 21
7.297000
  0
LINE
  8
0
 10
16.201000
 11
15.703000
 20
7.297000
 21
7.234000
  0
LINE
  8
0
 10
15.703000
 11
15.200000
 20
7.234000
 21
7.234000
  0
LINE
  8
0
 10
15.200000
 11
14.702000
 20
7.234000
 21
7.297000
  0
LINE
  8
0
 10
14.702000
 11
14.215000
 20
7.297000
 21
7.422000
  0
LINE
  8
0
 10
14.215000
 11
13.748000
 20
7.422000
 21
7.607000
  0
LINE
  8
0
 10
13.748000
 11
13.308000
 20
7.607000
 21
7.849000
  0
LINE
  8
0
 10
13.308000
 11
12.902000
 20
7.849000
 21
8.144000
  0
LINE
  8
0
 10
12.902000
 11
12.536000
 20
8.144000
 21
8.488000
  0
LINE
  8
0
 10
12.536000
 11
12.215000
 20
8.488000
 21
8.875000
  0
LINE
  8
0
 10
12.215000
 11
11.947000
 20
8.875000
 21
9.299000
  0
LINE
  8
0
 10
11.947000
 11
11.732000
 20
9.299000
 21
9.754000
  0
LINE
  8
0
 10
11.732000
 11
11.577000
 20
9.754000
 21
10.231000
  0
LINE
  8
0
 10
11.577000
 11
11.483000
 20
10.231000
 21
10.725000
  0
LINE
  8
0
 10
11.483000
 11
11.452000
 20
10.725000
 21
11.226000
  0
LINE
  8
0
 10
15.099000
 11
15.131000
 20
0.000000
 21
0.501000
  0
LINE
  8
0
 10
15.131000
 11
15.225000
 20
0.501000
 21
0.995000
  0
LINE
  8
0
 10
15.225000
 11
15.380000
 20
0.995000
 21
1.472000
  0
LINE
  8
0
 10
15.380000
 11
15.594000
 20
1.472000
 21
1.927000
  0
LINE
  8
0
 10
15.594000
 11
15.863000
 20
1.927000
 21
2.351000
  0
LINE
  8
0
 10
15.863000
 11
16.183000
 20
2.351000
 21
2.738000
  0
LINE
  8
0
 10
16.183000
 11
16.549000
 20
2.738000
 21
3.082000
  0
LINE
  8
0
 10
16.549000
 11
16.956000
 20
3.082000
 21
3.377000
  0
LINE
  8
0
 10
16.956000
 11
17.396000
 20
3.377000
 21
3.619000
  0
LINE
  8
0
 10
17.396000
 11
17.863000
 20
3.619000
 21
3.804000
  0
LINE
  8
0
 10
17.863000
 11
18.349000
 20
3.804000
 21
3.929000
  0
LINE
  8
0
 10
18.349000
 11
18.848000
 20
3.929000
 21
3.992000
  0
LINE
  8
0
 10
18.848000
 11
19.350000
 20
3.992000
 21
3.992000
  0
LINE
  8
0
 10
19.350000
 11
19.849000
 20
3.992000
 21
3.929000
  0
LINE
  8
0
 10
19.849000
 11
20.335000
 20
3.929000
 21
3.804000
  0
LINE
  8
0
 10
20.335000
 11
20.802000
 20
3.804000
 21
3.619000
  0
LINE
  8
0
 10
20.802000
 11
21.242000
 20
3.619000
 21
3.377000
  0
LINE
  8
0
 10
21.242000
 11
21.649000
 20
3.377000
 21
3.082000
  0
LINE
  8
0
 10
21.649000
 11
22.015000
 20
3.082000
 21
2.738000
  0
LINE
  8
0
 10
22.015000
 11
22.335000
 20
2.738000
 21
2.351000
  0
LINE
  8
0
 10
22.335000
 11
22.604000
 20
2.351000
 21
1.927000
  0
LINE
  8
0
 10
22.604000
 11
22.818000
 20
1.927000
 21
1.472000
  0
LINE
  8
0
 10
22.818000
 11
22.973000
 20
1.472000
 21
0.995000
  0
LINE
  8
0
 10
22.973000
 11
23.067000
 20
0.995000
 21
0.501000
  0
LINE
  8
0
 10
23.067000
 11
23.099000
 20
0.501000
 21
0.000000
  0
LINE
  8
0
 10
23.099000
 11
23.067000
 20
0.000000
 21
-0.501000
  0
LINE
  8
0
 10
23.067000
 11
22.973000
 20
-0.501000
 21
-0.995000
  0
LINE
  8
0
 10
22.973000
 11
22.818000
 20
-0.995000
 21
-1.472000
  0
LINE
  8
0
 10
22.818000
 11
22.604000
 20
-1.472000
 21
-1.927000
  0
LINE
  8
0
 10
22.604000
 11
22.335000
 20
-1.927000
 21
-2.351000
  0
LINE
  8
0
 10
22.335000
 11
22.015000
 20
-2.351000
 21
-2.738000
  0
LINE
  8
0
 10
22.015000
 11
21.649000
 20
-2.738000
 21
-3.082000
  0
LINE
  8
0
 10
21.649000
 11
21.242000
 20
-3.082000
 21
-3.377000
  0
LINE
  8
0
 10
21.242000
 11
20.802000
 20
-3.377000
 21
-3.619000
  0
LINE
  8
0
 10
20.802000
 11
20.335000
 20
-3.619000
 21
-3.804000
  0
LINE
  8
0
 10
20.335000
 11
19.849000
 20
-3.804000
 21
-3.929000
  0
LINE
  8
0
 10
19.849000
 11
19.350000
 20
-3.929000
 21
-3.992000
  0
LINE
  8
0
 10
19.350000
 11
18.848000
 20
-3.992000
 21
-3.992000
  0
LINE
  8
0
 10
18.848000
 11
18.349000
 20
-3.992000
 21
-3.929000
  0
LINE
  8
0
 10
18.349000
 11
17.863000
 20
-3.929000
 21
-3.804000
  0
LINE
  8
0
 10
17.863000
 11
17.396000
 20
-3.804000
 21
-3.619000
  0
LINE
  8
0
 10
17.396000
 11
16.956000
 20
-3.619000
 21
-3.377000
  0
LINE
  8
0
 10
16.956000
 11
16.549000
 20
-3.377000
 21
-3.082000
  0
LINE
  8
0
 10
16.549000
 11
16.183000
 20
-3.082000
 21
-2.738000
  0
LINE
  8
0
 10
16.183000
 11
15.863000
 20
-2.738000
 21
-2.351000
  0
LINE
  8
0
 10
15.863000
 11
15.594000
 20
-2.351000
 21
-1.927000
  0
LINE
  8
0
 10
15.594000
 11
15.380000
 20
-1.927000
 21
-1.472000
  0
LINE
  8
0
 10
15.380000
 11
15.225000
 20
-1.472000
 21
-0.995000
  0
LINE
  8
0
 10
15.225000
 11
15.131000
 20
-0.995000
 21
-0.501000
  0
LINE
  8
0
 10
15.131000
 11
15.099000
 20
-0.501000
 21
0.000000
  0
ENDSEC
  0
SECTION
  2
OBJECTS
  0
DICTIONARY
  0
ENDSEC
  0
EOF
