999
DXF created by Inkscape
  0
SECTION
  2
HEADER
  9
$ACADVER
  1
AC1014
  9
$HANDSEED
  5
FFFF
  9
$MEASUREMENT
 70
     1
  0
ENDSEC
  0
SECTION
  2
TABLES
  0
TABLE
  2
VPORT
  5
8
330
0
100
AcDbSymbolTable
 70
     4
  0
VPORT
  5
2E
330
8
100
AcDbSymbolTableRecord
100
AcDbViewportTableRecord
  2
*ACTIVE
 70
     0
 10
0.0
 20
0.0
 11
1.0
 21
1.0
 12
210.0
 22
148.5
 13
0.0
 23
0.0
 14
10.0
 24
10.0
 15
10.0
 25
10.0
 16
0.0
 26
0.0
 36
1.0
 17
0.0
 27
0.0
 37
0.0
 40
341.0
 41
1.24
 42
50.0
 43
0.0
 44
0.0
 50
0.0
 51
0.0
 71
     0
 72
   100
 73
     1
 74
     3
 75
     0
 76
     0
 77
     0
 78
     0
  0
ENDTAB
  0
TABLE
  2
LTYPE
  5
5
330
0
100
AcDbSymbolTable
 70
     1
  0
LTYPE
  5
14
330
5
100
AcDbSymbolTableRecord
100
AcDbLinetypeTableRecord
  2
BYBLOCK
 70
     0
  3

 72
    65
 73
     0
 40
0.0
  0
LTYPE
  5
15
330
5
100
AcDbSymbolTableRecord
100
AcDbLinetypeTableRecord
  2
BYLAYER
 70
     0
  3

 72
    65
 73
     0
 40
0.0
  0
LTYPE
  5
16
330
5
100
AcDbSymbolTableRecord
100
AcDbLinetypeTableRecord
  2
CONTINUOUS
 70
     0
  3
Solid line
 72
    65
 73
     0
 40
0.0
  0
ENDTAB
  0
TABLE
  2
LAYER
  5
2
100
AcDbSymbolTable
 70
2
  0
LAYER
  5
50
100
AcDbSymbolTableRecord
100
AcDbLayerTableRecord
  2
0
 70
0
  6
CONTINUOUS
  0
LAYER
  5
51
100
AcDbSymbolTableRecord
100
AcDbLayerTableRecord
  2
Beam
 70
0
  6
CONTINUOUS
  0
ENDTAB
  0
TABLE
  2
STYLE
  5
3
330
0
100
AcDbSymbolTable
 70
     1
  0
STYLE
  5
11
330
3
100
AcDbSymbolTableRecord
100
AcDbTextStyleTableRecord
  2
STANDARD
 70
     0
 40
0.0
 41
1.0
 50
0.0
 71
     0
 42
2.5
  3
txt
  4

  0
ENDTAB
  0
TABLE
  2
VIEW
  5
6
330
0
100
AcDbSymbolTable
 70
     0
  0
ENDTAB
  0
TABLE
  2
UCS
  5
7
330
0
100
AcDbSymbolTable
 70
     0
  0
ENDTAB
  0
TABLE
  2
APPID
  5
9
330
0
100
AcDbSymbolTable
 70
     2
  0
APPID
  5
12
330
9
100
AcDbSymbolTableRecord
100
AcDbRegAppTableRecord
  2
ACAD
 70
     0
  0
ENDTAB
  0
TABLE
  2
DIMSTYLE
  5
A
330
0
100
AcDbSymbolTable
 70
     1
  0
DIMSTYLE
105
27
330
A
100
AcDbSymbolTableRecord
100
AcDbDimStyleTableRecord
  2
ISO-25
 70
     0
  3

  4

  5

  6

  7

 40
1.0
 41
2.5
 42
0.625
 43
3.75
 44
1.25
 45
0.0
 46
0.0
 47
0.0
 48
0.0
140
2.5
141
2.5
142
0.0
143
0.03937007874016
144
1.0
145
0.0
146
1.0
147
0.625
 71
     0
 72
     0
 73
     0
 74
     0
 75
     0
 76
     0
 77
     1
 78
     8
170
     0
171
     3
172
     1
173
     0
174
     0
175
     0
176
     0
177
     0
178
     0
270
     2
271
     2
272
     2
273
     2
274
     3
340
11
275
     0
280
     0
281
     0
282
     0
283
     0
284
     8
285
     0
286
     0
287
     3
288
     0
  0
ENDTAB
  0
TABLE
  2
BLOCK_RECORD
  5
1
330
0
100
AcDbSymbolTable
 70
     1
  0
BLOCK_RECORD
  5
1F
330
1
100
AcDbSymbolTableRecord
100
AcDbBlockTableRecord
  2
*MODEL_SPACE
  0
BLOCK_RECORD
  5
1B
330
1
100
AcDbSymbolTableRecord
100
AcDbBlockTableRecord
  2
*PAPER_SPACE
  0
ENDTAB
  0
ENDSEC
  0
SECTION
  2
BLOCKS
  0
BLOCK
  5
20
330
1F
100
AcDbEntity
  8
0
100
AcDbBlockBegin
  2
*MODEL_SPACE
 70
     0
 10
0.0
 20
0.0
 30
0.0
  3
*MODEL_SPACE
  1

  0
ENDBLK
  5
21
330
1F
100
AcDbEntity
  8
0
100
AcDbBlockEnd
  0
BLOCK
  5
1C
330
1B
100
AcDbEntity
 67
     1
  8
0
100
AcDbBlockBegin
  2
*PAPER_SPACE
  1

  0
ENDBLK
  5
1D
330
1B
100
AcDbEntity
 67
     1
  8
0
100
AcDbBlockEnd
  0
ENDSEC
  0
SECTION
  2
ENTITIES
  0
LWPOLYLINE
  5
100
100
AcDbEntity
  8
Beam
 62
1
100
AcDbPolyline
 90
19
 70
0
 10
4.048181
 20
1.609289
 30
0.0
 10
4.132849
 20
1.534867
 30
0.0
 10
4.257381
 20
1.484772
 30
0.0
 10
4.750571
 20
1.484772
 30
0.0
 10
4.875456
 20
1.534867
 30
0.0
 10
4.974941
 20
1.609289
 30
0.0
 10
4.999989
 20
1.731350
 30
0.0
 10
4.999989
 20
4.751128
 30
0.0
 10
4.974942
 20
4.875672
 30
0.0
 10
4.875456
 20
4.950094
 30
0.0
 10
4.750571
 20
4.999850
 30
0.0
 10
1.766030
 20
4.999850
 30
0.0
 10
1.641850
 20
4.950094
 30
0.0
 10
1.532134
 20
4.875672
 30
0.0
 10
1.507087
 20
4.751128
 30
0.0
 10
1.507087
 20
4.256195
 30
0.0
 10
1.532134
 20
4.131650
 30
0.0
 10
1.641850
 20
4.034650
 30
0.0
 10
1.766030
 20
4.010097
 30
0.0
  0
LWPOLYLINE
  5
101
100
AcDbEntity
  8
Beam
 62
1
100
AcDbPolyline
 90
11
 70
0
 10
1.766030
 20
4.009956
 30
0.0
 10
2.991950
 20
4.009956
 30
0.0
 10
3.081909
 20
3.960200
 30
0.0
 10
3.116128
 20
3.885411
 30
0.0
 10
3.081909
 20
3.810989
 30
0.0
 10
1.008958
 20
2.005106
 30
0.0
 10
0.749663
 20
2.005106
 30
0.0
 10
0.625131
 20
1.979988
 30
0.0
 10
0.540816
 20
1.880589
 30
0.0
 10
0.527762
 20
1.830833
 30
0.0
 10
0.503067
 20
1.855669
 30
0.0
  0
LWPOLYLINE
  5
102
100
AcDbEntity
  8
Beam
 62
1
100
AcDbPolyline
 90
2
 70
0
 10
0.503067
 20
1.855528
 30
0.0
 10
0.415930
 20
1.830692
 30
0.0
  0
LWPOLYLINE
  5
103
100
AcDbEntity
  8
Beam
 62
1
100
AcDbPolyline
 90
15
 70
0
 10
0.415930
 20
1.830833
 30
0.0
 10
0.391236
 20
1.731350
 30
0.0
 10
0.415930
 20
1.656561
 30
0.0
 10
0.478020
 20
1.631443
 30
0.0
 10
0.478020
 20
1.609232
 30
0.0
 10
0.365835
 20
1.534867
 30
0.0
 10
0.241303
 20
1.484772
 30
0.0
 10
-0.242009
 20
1.484772
 30
0.0
 10
-0.363720
 20
1.534867
 30
0.0
 10
-0.450857
 20
1.609289
 30
0.0
 10
-0.463557
 20
1.631584
 30
0.0
 10
-0.413461
 20
1.656646
 30
0.0
 10
-0.388767
 20
1.731350
 30
0.0
 10
-0.413461
 20
1.830833
 30
0.0
 10
-0.500952
 20
1.855669
 30
0.0
  0
LWPOLYLINE
  5
104
100
AcDbEntity
  8
Beam
 62
1
100
AcDbPolyline
 90
12
 70
0
 10
-0.500952
 20
1.855528
 30
0.0
 10
-0.513299
 20
1.855528
 30
0.0
 10
-0.513299
 20
1.880646
 30
0.0
 10
-0.625484
 20
1.980072
 30
0.0
 10
-0.750016
 20
2.005190
 30
0.0
 10
-0.984264
 20
2.005106
 30
0.0
 10
-3.079440
 20
3.810989
 30
0.0
 10
-3.104135
 20
3.885411
 30
0.0
 10
-3.079440
 20
3.960200
 30
0.0
 10
-2.992303
 20
4.009956
 30
0.0
 10
-1.741689
 20
4.009956
 30
0.0
 10
-1.617156
 20
4.034509
 30
0.0
  0
LWPOLYLINE
  5
105
100
AcDbEntity
  8
Beam
 62
1
100
AcDbPolyline
 90
28
 70
0
 10
-1.617156
 20
4.034650
 30
0.0
 10
-1.530019
 20
4.131650
 30
0.0
 10
-1.492623
 20
4.256195
 30
0.0
 10
-1.492623
 20
4.751128
 30
0.0
 10
-1.530019
 20
4.875672
 30
0.0
 10
-1.617156
 20
4.950094
 30
0.0
 10
-1.741689
 20
4.999850
 30
0.0
 10
-4.750924
 20
4.999850
 30
0.0
 10
-4.875457
 20
4.950094
 30
0.0
 10
-4.962594
 20
4.875672
 30
0.0
 10
-4.999989
 20
4.751128
 30
0.0
 10
-4.999989
 20
1.731350
 30
0.0
 10
-4.962594
 20
1.609289
 30
0.0
 10
-4.875457
 20
1.534867
 30
0.0
 10
-4.750924
 20
1.484772
 30
0.0
 10
-4.255265
 20
1.484772
 30
0.0
 10
-4.133202
 20
1.534867
 30
0.0
 10
-4.033718
 20
1.609289
 30
0.0
 10
-4.008670
 20
1.731350
 30
0.0
 10
-4.008670
 20
2.995000
 30
0.0
 10
-3.971275
 20
3.069450
 30
0.0
 10
-3.884138
 20
3.116722
 30
0.0
 10
-3.797000
 20
3.069450
 30
0.0
 10
-2.000630
 20
0.990178
 30
0.0
 10
-2.000630
 20
0.741117
 30
0.0
 10
-1.950889
 20
0.619394
 30
0.0
 10
-1.876099
 20
0.544606
 30
0.0
 10
-1.838703
 20
0.519770
 30
0.0
  0
LWPOLYLINE
  5
106
100
AcDbEntity
  8
Beam
 62
1
100
AcDbPolyline
 90
13
 70
0
 10
-1.838703
 20
0.519911
 30
0.0
 10
-1.851051
 20
0.494793
 30
0.0
 10
-1.826356
 20
0.420428
 30
0.0
 10
-1.741689
 20
0.395310
 30
0.0
 10
-1.666899
 20
0.420512
 30
0.0
 10
-1.641850
 20
0.470184
 30
0.0
 10
-1.617156
 20
0.445066
 30
0.0
 10
-1.530019
 20
0.370700
 30
0.0
 10
-1.492623
 20
0.246156
 30
0.0
 10
-1.492623
 20
-0.248778
 30
0.0
 10
-1.530019
 20
-0.370839
 30
0.0
 10
-1.617156
 20
-0.445628
 30
0.0
 10
-1.641850
 20
-0.470181
 30
0.0
  0
LWPOLYLINE
  5
107
100
AcDbEntity
  8
Beam
 62
1
100
AcDbPolyline
 90
48
 70
0
 10
-1.641850
 20
-0.470322
 30
0.0
 10
-1.666899
 20
-0.420594
 30
0.0
 10
-1.741689
 20
-0.395477
 30
0.0
 10
-1.826356
 20
-0.420651
 30
0.0
 10
-1.851051
 20
-0.495016
 30
0.0
 10
-1.851051
 20
-0.520134
 30
0.0
 10
-1.876099
 20
-0.520078
 30
0.0
 10
-1.950889
 20
-0.619561
 30
0.0
 10
-2.000630
 20
-0.743739
 30
0.0
 10
-2.000630
 20
-0.990316
 30
0.0
 10
-3.797000
 20
-3.069589
 30
0.0
 10
-3.884138
 20
-3.119683
 30
0.0
 10
-3.971275
 20
-3.069589
 30
0.0
 10
-4.008670
 20
-2.994800
 30
0.0
 10
-4.008670
 20
-1.731150
 30
0.0
 10
-4.033718
 20
-1.609456
 30
0.0
 10
-4.133202
 20
-1.535005
 30
0.0
 10
-4.255265
 20
-1.485278
 30
0.0
 10
-4.750924
 20
-1.485278
 30
0.0
 10
-4.875457
 20
-1.535005
 30
0.0
 10
-4.962594
 20
-1.609456
 30
0.0
 10
-4.999989
 20
-1.731150
 30
0.0
 10
-4.999989
 20
-4.751294
 30
0.0
 10
-4.962594
 20
-4.875811
 30
0.0
 10
-4.875457
 20
-4.950261
 30
0.0
 10
-4.750924
 20
-4.999989
 30
0.0
 10
-1.741689
 20
-4.999989
 30
0.0
 10
-1.617156
 20
-4.950261
 30
0.0
 10
-1.530019
 20
-4.875811
 30
0.0
 10
-1.492623
 20
-4.751294
 30
0.0
 10
-1.492623
 20
-4.258450
 30
0.0
 10
-1.530019
 20
-4.134639
 30
0.0
 10
-1.617156
 20
-4.035156
 30
0.0
 10
-1.741689
 20
-4.009756
 30
0.0
 10
-2.992303
 20
-4.009756
 30
0.0
 10
-3.079440
 20
-3.960367
 30
0.0
 10
-3.104135
 20
-3.885916
 30
0.0
 10
-3.079440
 20
-3.786094
 30
0.0
 10
-0.984264
 20
-2.005272
 30
0.0
 10
-0.750016
 20
-2.005272
 30
0.0
 10
-0.625484
 20
-1.979872
 30
0.0
 10
-0.513299
 20
-1.880728
 30
0.0
 10
-0.513299
 20
-1.831000
 30
0.0
 10
-0.500952
 20
-1.856118
 30
0.0
 10
-0.413461
 20
-1.830915
 30
0.0
 10
-0.388767
 20
-1.731150
 30
0.0
 10
-0.413461
 20
-1.659183
 30
0.0
 10
-0.463557
 20
-1.634348
 30
0.0
  0
LWPOLYLINE
  5
108
100
AcDbEntity
  8
Beam
 62
1
100
AcDbPolyline
 90
9
 70
0
 10
-0.463557
 20
-1.634489
 30
0.0
 10
-0.450857
 20
-1.609371
 30
0.0
 10
-0.363720
 20
-1.535005
 30
0.0
 10
-0.242009
 20
-1.485278
 30
0.0
 10
0.241303
 20
-1.485278
 30
0.0
 10
0.365835
 20
-1.535005
 30
0.0
 10
0.478020
 20
-1.609456
 30
0.0
 10
0.478020
 20
-1.634573
 30
0.0
 10
0.415930
 20
-1.659324
 30
0.0
  0
LWPOLYLINE
  5
109
100
AcDbEntity
  8
Beam
 62
1
100
AcDbPolyline
 90
48
 70
0
 10
0.415930
 20
-1.659183
 30
0.0
 10
0.391236
 20
-1.731150
 30
0.0
 10
0.415930
 20
-1.831000
 30
0.0
 10
0.503067
 20
-1.856118
 30
0.0
 10
0.527762
 20
-1.830915
 30
0.0
 10
0.540816
 20
-1.880728
 30
0.0
 10
0.625131
 20
-1.979872
 30
0.0
 10
0.749663
 20
-2.005272
 30
0.0
 10
1.008958
 20
-2.005272
 30
0.0
 10
3.081909
 20
-3.786094
 30
0.0
 10
3.116128
 20
-3.885916
 30
0.0
 10
3.081909
 20
-3.960367
 30
0.0
 10
2.991950
 20
-4.009756
 30
0.0
 10
1.766030
 20
-4.009756
 30
0.0
 10
1.641850
 20
-4.035156
 30
0.0
 10
1.532134
 20
-4.134639
 30
0.0
 10
1.507087
 20
-4.258450
 30
0.0
 10
1.507087
 20
-4.751294
 30
0.0
 10
1.532134
 20
-4.875811
 30
0.0
 10
1.641850
 20
-4.950261
 30
0.0
 10
1.766030
 20
-4.999989
 30
0.0
 10
4.750571
 20
-4.999989
 30
0.0
 10
4.875456
 20
-4.950261
 30
0.0
 10
4.974941
 20
-4.875811
 30
0.0
 10
4.999989
 20
-4.751294
 30
0.0
 10
4.999989
 20
-1.731150
 30
0.0
 10
4.974942
 20
-1.609456
 30
0.0
 10
4.875456
 20
-1.535005
 30
0.0
 10
4.750571
 20
-1.485278
 30
0.0
 10
4.257381
 20
-1.485278
 30
0.0
 10
4.132849
 20
-1.535005
 30
0.0
 10
4.048181
 20
-1.609456
 30
0.0
 10
4.008669
 20
-1.731150
 30
0.0
 10
4.008669
 20
-2.994800
 30
0.0
 10
3.983269
 20
-3.069589
 30
0.0
 10
3.898954
 20
-3.119683
 30
0.0
 10
3.823811
 20
-3.069589
 30
0.0
 10
2.015094
 20
-0.990316
 30
0.0
 10
2.015094
 20
-0.743739
 30
0.0
 10
1.975230
 20
-0.619561
 30
0.0
 10
1.890914
 20
-0.520078
 30
0.0
 10
1.865514
 20
-0.520078
 30
0.0
 10
1.865514
 20
-0.494960
 30
0.0
 10
1.850698
 20
-0.420594
 30
0.0
 10
1.766030
 20
-0.395477
 30
0.0
 10
1.681715
 20
-0.420651
 30
0.0
 10
1.666545
 20
-0.470322
 30
0.0
 10
1.641850
 20
-0.445769
 30
0.0
  0
LWPOLYLINE
  5
10a
100
AcDbEntity
  8
Beam
 62
1
100
AcDbPolyline
 90
13
 70
0
 10
1.641850
 20
-0.445628
 30
0.0
 10
1.532134
 20
-0.370839
 30
0.0
 10
1.507087
 20
-0.248778
 30
0.0
 10
1.507087
 20
0.246156
 30
0.0
 10
1.532134
 20
0.370700
 30
0.0
 10
1.641850
 20
0.445122
 30
0.0
 10
1.666545
 20
0.470240
 30
0.0
 10
1.681715
 20
0.420428
 30
0.0
 10
1.766030
 20
0.395310
 30
0.0
 10
1.850698
 20
0.420512
 30
0.0
 10
1.865514
 20
0.494878
 30
0.0
 10
1.865514
 20
0.519996
 30
0.0
 10
1.890914
 20
0.544747
 30
0.0
  0
LWPOLYLINE
  5
10b
100
AcDbEntity
  8
Beam
 62
1
100
AcDbPolyline
 90
10
 70
0
 10
1.890914
 20
0.544606
 30
0.0
 10
1.975230
 20
0.619394
 30
0.0
 10
2.015094
 20
0.741117
 30
0.0
 10
2.015094
 20
0.990178
 30
0.0
 10
3.823811
 20
3.069450
 30
0.0
 10
3.898954
 20
3.116722
 30
0.0
 10
3.983269
 20
3.069450
 30
0.0
 10
4.008669
 20
2.995000
 30
0.0
 10
4.008669
 20
1.731350
 30
0.0
 10
4.048181
 20
1.609289
 30
0.0
  0
ENDSEC
  0
SECTION
  2
OBJECTS
  0
DICTIONARY
  5
C
330
0
100
AcDbDictionary
  3
ACAD_GROUP
350
D
  3
ACAD_MLINESTYLE
350
17
  0
DICTIONARY
  5
D
330
C
100
AcDbDictionary
  0
DICTIONARY
  5
1A
330
C
100
AcDbDictionary
  0
DICTIONARY
  5
17
330
C
100
AcDbDictionary
  3
STANDARD
350
18
  0
DICTIONARY
  5
19
330
C
100
AcDbDictionary
  0
ENDSEC
  0
EOF
